<svg width="63" height="64" viewBox="0 0 63 64" fill="none" xmlns="http://www.w3.org/2000/svg">
<path d="M36.8475 1.2279C36.4446 1.50697 36.4446 1.54418 36.4446 6.53023V11.5349H33.7341C31.8661 11.5349 30.9504 11.6093 30.8039 11.7581C30.6391 11.9256 30.5841 13.6744 30.5841 18.4558V24.9302H28.5696H26.5551V20.3535C26.5551 17.5628 26.4818 15.6465 26.3719 15.4233C26.1888 15.0884 25.8408 15.0698 13.8269 15.0698H1.48326L1.20855 15.4791C0.952155 15.8512 0.915527 17.1721 0.915527 26.0837C0.915527 36.0372 0.915527 36.2791 1.28181 36.6512C1.64809 37.0233 1.88617 37.0233 13.7902 37.0233C25.328 37.0233 25.969 37.0047 26.2437 36.6884C26.5184 36.3907 26.5551 35.7581 26.5551 31.6651V26.9767H28.5696H30.5841V33.4884V40H31.4998H32.4155V26.7907V13.5814H34.4301H36.4446V18.4744C36.4446 22.9953 36.4629 23.4046 36.7743 23.6837C37.0856 23.9628 38.2211 24 49.2277 24C61.1135 24 61.3516 24 61.7179 23.6279C62.0841 23.2558 62.0841 23.014 62.0841 12.5581V1.84186L61.6263 1.39535L61.1868 0.930229H49.2277C38.6972 0.930229 37.2138 0.967438 36.8475 1.2279ZM60.0696 12.4651V21.9535H49.2644H38.4591V12.4651V2.97674H49.2644H60.0696V12.4651ZM24.5405 25.9535V34.9767H13.7353H2.93006V25.9535V16.9302H13.7353H24.5405V25.9535Z" fill="#59DBAE"/>
<path d="M52.2497 4.9489C51.8102 5.20937 51.4622 5.48844 51.4622 5.56286C51.4622 5.65588 51.5904 6.08379 51.7369 6.51169C51.8834 6.9582 51.9933 7.3489 51.9384 7.38611C51.9017 7.42332 51.6453 7.36751 51.3706 7.25588C50.8395 7.05123 49.3378 6.921 49.1913 7.06983C49.1546 7.12565 49.1546 7.55355 49.2096 8.03727C49.3012 8.80006 49.3744 8.9303 49.7224 8.9303C50.1619 8.9303 51.2791 9.28379 51.2791 9.43262C51.2791 9.48844 51.0959 9.78611 50.8762 10.0838C50.6564 10.4001 50.2901 11.1256 50.0703 11.7024L49.6491 12.7443L48.4587 12.8745C46.9936 13.0233 45.382 13.7303 44.4297 14.6605C43.6788 15.3861 42.8547 16.9303 42.8547 17.6187C42.8547 18.1582 42.2137 18.1954 41.243 17.6931C40.8767 17.507 40.2907 17.2838 39.9794 17.2094L39.375 17.0791V18.0838V19.0698L40.4372 19.5349C41.7924 20.1489 43.3491 20.1489 44.448 19.5722C45.4003 19.0698 46.1878 19.0512 47.25 19.5536C48.6235 20.1861 49.5576 20.2047 50.986 19.628C52.3596 19.0698 52.7442 19.0884 54.484 19.721C55.766 20.1861 56.5535 20.1489 58.1285 19.4977L59.1724 19.0698L59.0442 18.1396C58.9892 17.6187 58.8977 17.1722 58.861 17.1349C58.8244 17.0977 58.2201 17.2838 57.5241 17.5629C55.9125 18.2326 55.6744 18.1768 55.3997 17.0791C54.9968 15.4791 53.7698 14.0466 52.1948 13.3954C51.7552 13.2094 51.6637 13.0791 51.7552 12.7629C51.9384 12.1117 52.6343 10.921 52.8724 10.8466C53.0738 10.7722 53.4951 11.1629 54.0628 11.9629C54.2826 12.2605 54.3558 12.2605 55.1799 11.9815C55.6561 11.814 56.0407 11.628 56.0407 11.5536C56.0407 11.4791 55.8026 11.0326 55.5096 10.5675L54.9602 9.71169L55.9125 9.80472L56.8648 9.89774L57.1029 9.02332C57.2311 8.5396 57.286 8.09309 57.2128 8.01867C57.1578 7.96286 56.4253 7.86983 55.5828 7.83262L54.0445 7.77681L53.843 6.80937C53.7331 6.28844 53.5134 5.54425 53.3302 5.17216L53.0189 4.46518L52.2497 4.9489ZM51.2424 15.1629C51.8651 15.4419 53.2936 16.6698 53.2936 16.9489C53.2936 17.0047 52.8541 17.1163 52.3046 17.1722C51.7735 17.228 50.986 17.4512 50.5831 17.6559C49.6125 18.1582 49.0448 18.1396 47.7078 17.5815C47.1035 17.3396 46.261 17.1163 45.8215 17.1163H45.034L45.4186 16.5582C45.6384 16.2419 46.2427 15.7396 46.7555 15.4419C47.5796 14.9582 47.891 14.8838 49.1363 14.8838C50.0154 14.8838 50.8212 14.9954 51.2424 15.1629Z" fill="#59DBAE"/>
<path d="M15.9878 20.9861C15.8047 21.1535 14.9256 22.4931 14.0099 23.9442C13.1125 25.414 12.3067 26.5675 12.2151 26.5489C12.1419 26.5303 11.6474 25.8419 11.1163 25.0233C10.0175 23.3117 9.43143 22.8838 8.71718 23.2186C8.09451 23.4977 4.02881 29.7303 4.02881 30.4C4.02881 31.4419 4.02881 31.4419 13.8634 31.4419C22.6541 31.4419 22.9105 31.4233 23.2585 31.0698C23.4599 30.8652 23.6247 30.5489 23.6247 30.3814C23.6247 29.9721 17.8192 20.8931 17.4713 20.7628C16.9401 20.5582 16.2992 20.6512 15.9878 20.9861ZM18.8265 26.214C19.8521 27.8326 20.6945 29.2093 20.6945 29.2838C20.6945 29.3396 18.9547 29.3954 16.8303 29.3954C14.7058 29.3954 13.0026 29.321 13.0393 29.2465C13.1675 28.8931 16.757 23.2558 16.8486 23.2558C16.9035 23.2558 17.7826 24.5954 18.8265 26.214ZM10.1274 27.107C10.8965 28.3349 10.9881 28.5954 10.8233 28.9675C10.6401 29.3768 10.5303 29.3954 8.68055 29.3954H6.73927L7.12387 28.7814C7.34363 28.4652 7.87474 27.6279 8.29596 26.9396C8.71718 26.2512 9.10177 25.6745 9.15672 25.6745C9.21166 25.6745 9.65119 26.3256 10.1274 27.107Z" fill="#59DBAE"/>
<path d="M36.701 39.293C36.2981 39.8325 35.9135 40.372 35.8403 40.4837C35.767 40.5953 36.0784 40.9488 36.5179 41.2651L37.3054 41.8418L38.1845 40.6325C38.6606 39.9627 39.0269 39.4046 38.9903 39.3674C38.1845 38.7534 37.5801 38.3255 37.5252 38.3255C37.4885 38.3255 37.104 38.772 36.701 39.293Z" fill="#59DBAE"/>
<path d="M29.5583 42.4745C27.0859 43.6838 26.2801 47.1814 28.0383 49.1908C28.3313 49.5442 28.5694 49.8605 28.5694 49.9163C28.5694 49.9535 28.0932 50.028 27.5071 50.0838C26.2801 50.1768 25.456 50.6605 24.9432 51.5908C24.6685 52.1117 24.6319 52.8559 24.5769 57.1535L24.522 62.1396L24.9798 62.6047L25.4377 63.0698H31.4996H37.5615L38.0194 62.6047L38.4772 62.1396L38.4223 57.1535C38.3673 52.8559 38.3307 52.1117 38.056 51.5908C37.5432 50.6605 36.7191 50.1768 35.492 50.0838C34.906 50.028 34.4298 49.9349 34.4298 49.8791C34.4298 49.8047 34.6313 49.5442 34.8877 49.3024C35.5287 48.6884 35.9499 47.2373 35.8583 46.028C35.6019 43.014 32.3054 41.1535 29.5583 42.4745ZM32.7816 44.3908C33.4958 44.8373 33.8804 45.6001 33.8804 46.6047C33.8804 47.3861 33.7888 47.5721 33.1662 48.2047C32.5252 48.8559 32.3603 48.9303 31.4996 48.9303C30.6388 48.9303 30.474 48.8559 29.833 48.2047C29.2103 47.5721 29.1188 47.3861 29.1188 46.6047C29.1188 45.0605 30.0162 44.1117 31.463 44.0931C31.9025 44.0931 32.4885 44.2233 32.7816 44.3908ZM36.2612 52.4466C36.3711 52.6698 36.4444 54.4373 36.4444 56.9117V61.0233H31.4996H26.5548V56.9117C26.5548 54.4373 26.6281 52.6698 26.738 52.4466C26.9211 52.1117 27.1775 52.0931 31.4996 52.0931C35.8217 52.0931 36.0781 52.1117 36.2612 52.4466Z" fill="#59DBAE"/>
<path d="M39.1184 42.4744L37.873 42.6605L37.9463 43.5721C38.0012 44.0744 38.0928 44.5209 38.1478 44.5767C38.2027 44.6326 38.862 44.5767 39.6312 44.4651L41.023 44.2232L40.9132 43.4605C40.785 42.4744 40.6934 42.2326 40.5286 42.2698C40.4553 42.2698 39.8143 42.3814 39.1184 42.4744Z" fill="#59DBAE"/>
</svg>
