<svg width="55" height="68" viewBox="0 0 55 68" fill="none" xmlns="http://www.w3.org/2000/svg">
<path d="M2.20065 0.482861C1.22258 1.04617 0.782454 1.60949 0.342324 2.81659C0.0163011 3.72191 0 3.96333 0 34V64.2781L0.391227 65.284C0.847659 66.4911 1.30409 67.0343 2.28216 67.5775C2.99941 67.9799 3.27653 68 17.0347 68C30.7928 68 31.0699 67.9799 31.7872 67.5775C32.7653 67.0343 33.2217 66.4911 33.6781 65.284C34.0694 64.2982 34.0694 64.1976 34.0694 57.4781V50.6781L33.6618 50.1953C33.238 49.6521 32.5207 49.5515 32.0969 49.9539C31.5427 50.4769 31.4612 51.0402 31.4612 54.7018V58.3432H17.0347H2.60818V34V9.65682H17.0347H31.4612V13.2982C31.4612 16.9598 31.5427 17.5231 32.0969 18.0462C32.5207 18.4485 33.238 18.3479 33.6618 17.8047L34.0694 17.3219V10.5219C34.0694 3.80239 34.0694 3.70179 33.6781 2.716C33.2217 1.5089 32.7653 0.965701 31.7872 0.422506C31.0699 0.0201389 30.7928 2.05189e-05 17.0347 2.05189e-05H3.01571L2.20065 0.482861ZM31.0536 3.72191C31.396 4.12428 31.4612 4.40594 31.4612 5.33138V6.43789H17.0347H2.60818V5.33138C2.60818 4.40594 2.67338 4.12428 3.01571 3.72191L3.40694 3.21895H17.0347H30.6624L31.0536 3.72191ZM31.4612 62.6686C31.4612 63.5941 31.396 63.8757 31.0536 64.2781L30.6624 64.7811H17.0347H3.40694L3.01571 64.2781C2.67338 63.8757 2.60818 63.5941 2.60818 62.6686V61.5621H17.0347H31.4612V62.6686Z" fill="#59DBAE"/>
<path d="M8.52516 13.2379C6.97656 13.9219 5.77027 15.4912 5.36274 17.4024C4.95522 19.2533 5.49315 21.587 6.65053 23.0154C7.6938 24.3231 8.34585 24.645 10.0249 24.645C11.7039 24.645 12.3559 24.3231 13.3992 23.0154C14.3936 21.7882 14.7522 20.6817 14.7522 18.8107C14.7522 17.0403 14.4751 16.135 13.5133 14.8072C12.3885 13.2178 10.1716 12.5137 8.52516 13.2379ZM11.1985 16.6178C12.5026 17.6438 12.4863 20.1184 11.1659 21.1243C9.37282 22.4924 7.09066 20.0178 8.05243 17.7444C8.67187 16.2557 10.0901 15.7527 11.1985 16.6178Z" fill="#59DBAE"/>
<path d="M16.9696 17.8249C16.6273 18.3681 16.5458 19.0119 16.7251 19.6154C16.9207 20.219 17.7032 20.5208 19.1377 20.5208C20.9471 20.5208 22.0067 21.0036 23.0336 22.271C25.3484 25.1279 24.729 29.8557 21.7785 31.7468C20.9634 32.2699 20.8819 32.2699 16.7088 32.4107C12.9106 32.5314 12.3727 32.5918 11.4598 32.974C6.16198 35.3077 3.73311 42.7113 6.22718 48.9278C7.00963 50.8592 8.73755 52.9113 10.4492 53.9172C12.1934 54.9432 13.4486 55.1645 16.7903 55.0841C19.3333 55.0237 19.4311 55.0036 19.7408 54.5409C20.1646 53.8971 20.1483 52.8912 19.6756 52.348C19.317 51.9255 19.1377 51.9054 16.774 51.9054C13.8398 51.9054 12.6824 51.6841 11.4109 50.8994C10.1884 50.1349 8.78646 48.2438 8.29742 46.7349C7.79209 45.1456 7.77579 42.4095 8.26482 40.9207C8.99837 38.6474 10.2536 37.0781 12.063 36.1728C12.878 35.7705 13.3671 35.7302 17.1163 35.6095C21.6806 35.4687 22.1371 35.3681 23.7183 34.1006C26.9133 31.5858 27.9892 26.3551 26.2124 22.0497C25.7722 20.9835 24.3866 19.1929 23.5064 18.5693C22.2512 17.6639 20.996 17.3018 19.0725 17.3018C17.3608 17.3018 17.2956 17.3219 16.9696 17.8249Z" fill="#59DBAE"/>
<path d="M40.6716 18.5089C36.3518 19.3539 32.7819 22.6332 30.9725 27.4213C29.4402 31.4651 29.4402 36.5551 30.9725 40.619C32.5537 44.7633 35.6183 47.9219 39.2697 49.129C40.9977 49.6923 43.9319 49.7125 45.6598 49.129C49.8329 47.7409 53.0279 44.019 54.4787 38.8083C54.9677 37.0178 55.0003 36.7764 55.0003 34C55.0003 31.2237 54.9677 30.9823 54.4787 29.1917C53.2724 24.8663 51.0555 21.7681 47.8278 19.8971C47.0943 19.4746 46.0347 18.9918 45.4479 18.8107C44.0623 18.4284 41.8942 18.2876 40.6716 18.5089ZM49.2134 25.0474C49.7025 25.3491 49.8818 25.7113 49.8818 26.4154C49.8818 27.1196 47.2899 38.6876 47.0128 39.1906C46.8824 39.4521 46.6053 39.7338 46.4096 39.8343C45.8554 40.1361 36.466 43.2545 36.1399 43.2545C35.6509 43.2545 35.0478 42.3491 35.0478 41.6048C35.0478 41.0213 36.955 31.9882 37.5907 29.5136C37.7374 28.9704 37.9983 28.4675 38.1939 28.3267C38.5851 28.0651 47.9745 24.806 48.4636 24.7657C48.6266 24.7657 48.9689 24.8864 49.2134 25.0474Z" fill="#59DBAE"/>
<path d="M44.1762 29.6343C42.8721 30.0567 41.7799 30.4591 41.7473 30.4993C41.6984 30.5597 42.4646 31.5857 43.4427 32.7928C44.4207 33.9999 45.2358 34.9656 45.2521 34.9455C45.3336 34.8449 46.6377 28.91 46.5888 28.8698C46.5562 28.8496 45.4803 29.1916 44.1762 29.6343Z" fill="#59DBAE"/>
<path d="M39.3834 34.0201C38.5847 37.4804 38.2912 38.8887 38.3401 39.0094C38.389 39.1905 43.1979 37.6212 43.1979 37.4402C43.1979 37.3597 42.3991 36.3337 41.4211 35.1266L39.6279 32.9337L39.3834 34.0201Z" fill="#59DBAE"/>
<path d="M23.0989 37.8426C21.3057 38.1846 19.7245 39.6935 18.8769 41.8059C18.5672 42.6107 18.502 43.0734 18.502 44.7633C18.502 46.6545 18.5346 46.8355 19.0399 48.0024C19.4148 48.8474 20.1973 49.9941 21.5014 51.5835C24.0932 54.742 23.9954 54.742 26.5873 51.5835C27.8914 49.9941 28.6739 48.8474 29.0488 48.0024C29.5541 46.8355 29.5867 46.6545 29.5867 44.7633C29.5867 43.0332 29.5378 42.6107 29.1792 41.7456C28.0707 38.9491 25.5766 37.3397 23.0989 37.8426ZM25.3158 41.3231C26.408 41.8864 27.06 43.1941 27.06 44.7835C27.06 46.0308 26.6362 46.9361 25.2343 48.6261L24.0443 50.0947L22.7891 48.5255C21.3547 46.7349 21.0286 46.0308 21.0286 44.7835C21.0286 43.2142 21.6644 41.9065 22.7402 41.3231C23.376 40.9811 24.6475 40.961 25.3158 41.3231Z" fill="#59DBAE"/>
</svg>
