<svg width="550" height="430" viewBox="0 0 550 430" fill="none" xmlns="http://www.w3.org/2000/svg">
<mask id="path-1-inside-1_832_3" fill="white">
<path d="M251.329 2.02426C249.304 3.13762 247.279 4.45341 246.975 5.0607C246.671 5.56677 244.342 6.07285 241.913 6.07285C236.445 6.07285 232.8 9.71658 234.319 13.6639C234.926 15.1822 234.623 18.6234 233.61 23.3805C232.598 28.4412 232.294 33.1983 232.699 38.0565C233.104 42.6112 232.902 46.2549 232.193 47.7731C231.484 49.4937 231.383 51.4169 232.092 53.7448C233.307 58.2994 231.687 70.4451 229.358 73.7852C226.827 77.6314 225.207 81.7811 225.207 84.5139C225.207 87.3479 215.69 96.356 213.563 95.5463C211.943 94.939 210.02 89.8783 210.02 86.3358C210.02 85.02 209.513 82.9957 208.906 81.7811C206.476 77.2265 202.932 62.8541 203.54 59.8176C204.046 57.3885 203.641 56.0727 201.515 53.6436C200.097 51.8217 198.882 49.6962 198.882 48.7852C198.882 47.7731 197.769 45.85 196.453 44.433C193.01 40.6881 191.795 38.0566 191.795 33.9068C191.795 29.6558 189.973 25.7084 186.328 22.3683C183.898 20.0404 183.493 20.0404 180.962 21.3562C178.127 22.8744 174.583 27.8339 174.583 30.3643C174.583 31.174 173.672 32.9958 172.558 34.4128C171.445 35.8298 170.533 38.3602 170.533 40.1821C170.533 41.9027 170.128 43.7246 169.521 44.0282C169.015 44.3318 168.508 45.6476 168.508 46.9634C168.508 49.595 166.18 52.0241 162.737 53.0363C160.712 53.6435 160.409 53.4411 160.409 51.012C160.409 47.267 153.524 40.4857 149.676 40.4857C148.056 40.4857 142.184 41.4978 136.615 42.7124C124.365 45.344 115.759 45.344 105.735 42.6112C95.1041 39.7772 90.7505 40.9918 85.1819 48.3804C81.3345 53.7448 81.132 53.846 76.9809 53.2387C74.7535 52.935 70.0961 52.3278 66.7549 52.0241C60.1739 51.3156 56.6302 49.0889 52.6816 43.3197C51.2641 41.1942 49.5429 39.9796 47.518 39.7772C45.898 39.5748 42.8606 37.8541 40.9369 36.1335C33.4446 29.1497 33.7483 29.2509 29.2935 30.8703C27.066 31.68 22.0037 32.2873 17.9538 32.3885C10.1578 32.3885 8.74029 33.097 5.90537 38.6638C4.99415 40.3845 3.27295 42.7124 1.95673 43.927C-0.270706 45.85 -0.371953 46.4573 0.539272 50.6071C1.14675 53.1375 1.95673 58.2994 2.36172 62.0443C2.9692 68.5221 3.27295 69.2305 7.01909 72.4694C9.24653 74.3925 11.7777 76.7204 12.6889 77.5301C13.9039 78.6435 14.4101 80.9714 14.5114 86.1333C14.6126 93.4208 15.8276 96.1536 19.0675 96.1536C19.9787 96.1536 20.9912 97.6718 21.6999 100.202C22.3074 102.429 23.1174 104.251 23.6236 104.251C24.0286 104.251 25.4461 107.591 26.661 111.639C28.7872 118.421 29.5972 119.534 36.7858 126.113C42.1519 131.174 45.5943 133.502 48.0242 133.906C50.5554 134.413 52.1753 135.526 53.3903 137.55C56.4277 142.712 61.6926 146.457 67.7674 147.874C71.9185 148.785 73.9435 149.898 75.6647 152.125C80.3221 158.299 83.8657 160.829 92.2692 164.17C103.204 168.421 107.153 171.862 109.279 179.048C111 185.323 111.405 202.53 109.785 205.566C108.165 208.501 104.216 207.995 101.483 204.352C100.166 202.732 97.6353 199.493 95.7116 197.267L92.2692 193.218L88.8268 196.558C87.0044 198.279 85.4856 200.607 85.4856 201.619C85.4856 202.631 84.3719 204.149 82.9545 205.06C79.7146 207.186 73.9435 217.206 74.7535 219.331C75.1584 220.242 74.551 222.773 73.4372 225.101C70.9061 230.364 70.7036 231.477 71.716 235.526C72.6273 239.372 70.8048 245.951 68.8811 245.951C66.8562 245.951 63.2113 250.404 63.2113 252.833C63.2113 254.25 62.0976 255.566 60.1739 256.578C56.3265 258.501 51.0616 265.688 51.0616 268.825C51.0616 270.141 52.3778 272.671 53.8965 274.493C55.5165 276.315 57.3389 279.351 58.1489 281.173C58.8576 283.096 60.5788 285.323 61.8951 286.133C64.2237 287.651 64.4262 287.55 66.9574 284.513C71.6148 278.845 75.0572 280.971 77.8921 291.193C78.2971 292.509 79.0058 293.521 79.5121 293.521C80.0183 293.521 80.4233 294.23 80.4233 295.04C80.4233 296.254 83.8657 304.453 87.6118 311.942C88.1181 312.955 88.5231 314.979 88.5231 316.497C88.5231 318.319 89.8393 320.647 92.4717 323.38L96.5216 327.428L95.3066 339.473L94.0917 351.517L90.4468 352.833C86.9031 354.048 79.2083 358.602 76.6772 361.031C75.8672 361.74 75.2597 366.396 74.9559 373.076L74.4497 383.906L77.7909 389.068C79.7146 391.902 81.537 396.254 81.942 398.683C82.347 401.213 83.4607 404.554 84.3719 406.274C85.8906 408.906 86.9031 409.513 90.7505 409.918C95.9141 410.525 98.6478 412.347 98.6478 415.08C98.6478 418.825 102.9 425.809 106.343 427.63C110.696 429.958 118.897 429.047 125.073 425.505C127.503 424.189 132.262 421.659 135.603 420.039C138.944 418.42 143.197 416.092 145.12 415.08C147.044 413.966 150.588 412.752 153.018 412.347C156.359 411.841 158.08 410.93 159.902 408.4C161.32 406.679 162.434 404.655 162.434 404.149C162.434 402.226 169.521 396.76 171.951 396.76C173.368 396.76 176.912 395.748 180.051 394.635C184.91 392.711 186.125 392.61 188.758 393.724C191.694 394.938 191.795 395.242 191.795 401.416C191.795 409.311 195.035 415.991 198.882 415.991C201.009 415.991 205.97 413.663 205.97 412.651C205.97 411.436 209.412 411.841 216.196 413.966C219.739 415.08 226.523 417.205 231.282 418.622C236.04 420.039 241.508 422.165 243.431 423.177C254.67 429.452 257.302 430.262 261.554 429.149C263.883 428.541 267.528 426.315 269.654 424.29C273.603 420.545 273.704 420.343 272.692 415.991C272.084 413.562 271.882 410.626 272.185 409.412C272.894 406.78 294.46 387.448 299.826 384.716C302.155 383.602 306.306 380.465 309.242 377.833C314.001 373.38 314.608 372.469 314.912 368.116C315.418 360.728 318.05 353.137 321.189 349.898C322.708 348.278 327.163 345.141 331.213 343.015C337.085 339.776 338.604 338.359 339.11 336.031C339.515 334.311 340.224 332.793 340.73 332.489C341.236 332.185 344.273 332.388 347.615 332.995C353.183 334.007 354.094 333.906 359.562 331.477C366.042 328.542 370.901 324.392 374.648 318.623C376.268 316.092 377.887 314.776 379.406 314.675C382.039 314.675 394.29 311.538 395.909 310.525C396.719 310.019 396.922 307.287 396.517 302.53L396.011 295.242L400.061 295.849C402.288 296.254 406.338 297.368 409.072 298.481C411.805 299.493 416.766 301.517 420.108 302.833C427.094 305.465 436.105 305.971 440.155 303.744C442.989 302.226 447.647 302.833 454.532 305.667C458.075 307.185 466.378 306.274 468.402 304.25C470.731 302.023 473.262 301.619 477.92 302.833C482.172 304.048 482.577 303.946 485.108 301.416C487.741 298.785 487.741 298.683 486.019 294.635C483.893 289.27 483.995 287.246 486.323 284.817C487.336 283.704 488.956 280.262 489.968 277.226C491.183 273.683 492.904 270.748 495.132 268.926C501.308 263.764 502.523 261.133 504.244 248.785C505.965 235.93 507.686 231.68 512.445 228.441C516.292 225.809 517.912 222.975 519.33 216.092C520.14 212.145 520.95 210.728 523.177 209.716C527.025 207.894 534.011 198.38 534.011 194.939C534.011 191.801 531.884 187.246 529.353 185.121C525.303 181.781 524.088 178.238 524.696 171.457C525.202 164.17 524.493 162.651 519.026 160.323C515.786 159.008 515.584 158.704 516.191 155.263C516.596 153.238 517.811 150 518.824 147.975C519.836 145.85 521.253 141.498 521.861 138.157C522.468 134.817 523.683 129.554 524.392 126.518C525.202 123.481 526.923 116.7 528.138 111.437L530.467 102.024L537.554 98.3803C541.503 96.356 545.958 93.4208 547.477 91.8013C550.615 88.6637 550.716 86.9431 548.388 77.4289C547.78 75.2022 546.869 70.9512 546.262 68.016C544.439 58.9067 541.807 54.2508 536.542 50.6071C531.986 47.4695 531.682 47.3683 527.126 48.5828C524.493 49.2913 520.849 50.7083 519.026 51.7205C517.204 52.8338 513.559 54.1496 510.926 54.7569C504.649 56.3764 501.105 58.1982 495.03 63.1577C484.197 71.8621 482.375 74.0888 482.375 77.935C482.375 86.6394 478.628 94.4329 469.921 103.846L463.34 110.83H451.393C438.94 110.931 436.611 111.437 432.055 115.688C430.334 117.206 429.726 118.927 429.726 122.064C429.726 126.923 428.612 129.352 422.942 136.842C419.399 141.599 414.539 150.607 414.539 152.429C414.539 152.834 412.717 154.959 410.489 157.085C406.844 160.627 406.439 161.639 406.439 165.991C406.439 168.724 406.945 171.255 407.452 171.558C409.274 172.672 408.565 177.732 406.338 179.757C405.123 180.769 402.389 184.21 400.162 187.348C396.213 193.117 391.252 196.356 381.836 199.392C378.394 200.404 377.685 200.303 373.433 197.975C370.8 196.558 368.269 195.344 367.763 195.344C366.649 195.344 363.105 199.493 361.182 203.137C360.473 204.453 359.258 206.68 358.448 208.097C356.929 210.931 352.677 213.562 349.741 213.562C348.02 213.562 343.463 215.182 336.882 218.218C332.934 219.939 323.012 220.141 321.594 218.319C321.088 217.712 319.67 214.068 318.455 210.424C315.215 200.809 312.279 196.254 306.913 192.307C302.965 189.372 301.851 187.854 300.737 183.704C298.206 174.696 296.08 164.574 296.08 161.842C296.08 156.275 288.486 145.141 282.614 142.105C280.488 140.991 279.981 140.081 280.386 138.664C280.69 137.55 279.374 130.364 277.45 122.57C275.425 114.777 273.805 106.174 273.805 103.441C273.805 97.9754 272.894 95.445 266.009 80.9714C263.478 75.7083 261.453 70.2427 261.352 68.8257C261.352 67.4087 262.364 63.0565 263.478 59.2104C264.896 54.5545 266.009 46.9634 266.617 36.9432L267.528 21.761L264.086 14.8785C262.162 11.1336 260.643 7.38865 260.643 6.68015C260.643 5.16193 256.796 0 255.783 0C255.378 0.101214 253.353 1.01212 251.329 2.02426Z"/>
</mask>
<path d="M251.329 2.02426C249.304 3.13762 247.279 4.45341 246.975 5.0607C246.671 5.56677 244.342 6.07285 241.913 6.07285C236.445 6.07285 232.8 9.71658 234.319 13.6639C234.926 15.1822 234.623 18.6234 233.61 23.3805C232.598 28.4412 232.294 33.1983 232.699 38.0565C233.104 42.6112 232.902 46.2549 232.193 47.7731C231.484 49.4937 231.383 51.4169 232.092 53.7448C233.307 58.2994 231.687 70.4451 229.358 73.7852C226.827 77.6314 225.207 81.7811 225.207 84.5139C225.207 87.3479 215.69 96.356 213.563 95.5463C211.943 94.939 210.02 89.8783 210.02 86.3358C210.02 85.02 209.513 82.9957 208.906 81.7811C206.476 77.2265 202.932 62.8541 203.54 59.8176C204.046 57.3885 203.641 56.0727 201.515 53.6436C200.097 51.8217 198.882 49.6962 198.882 48.7852C198.882 47.7731 197.769 45.85 196.453 44.433C193.01 40.6881 191.795 38.0566 191.795 33.9068C191.795 29.6558 189.973 25.7084 186.328 22.3683C183.898 20.0404 183.493 20.0404 180.962 21.3562C178.127 22.8744 174.583 27.8339 174.583 30.3643C174.583 31.174 173.672 32.9958 172.558 34.4128C171.445 35.8298 170.533 38.3602 170.533 40.1821C170.533 41.9027 170.128 43.7246 169.521 44.0282C169.015 44.3318 168.508 45.6476 168.508 46.9634C168.508 49.595 166.18 52.0241 162.737 53.0363C160.712 53.6435 160.409 53.4411 160.409 51.012C160.409 47.267 153.524 40.4857 149.676 40.4857C148.056 40.4857 142.184 41.4978 136.615 42.7124C124.365 45.344 115.759 45.344 105.735 42.6112C95.1041 39.7772 90.7505 40.9918 85.1819 48.3804C81.3345 53.7448 81.132 53.846 76.9809 53.2387C74.7535 52.935 70.0961 52.3278 66.7549 52.0241C60.1739 51.3156 56.6302 49.0889 52.6816 43.3197C51.2641 41.1942 49.5429 39.9796 47.518 39.7772C45.898 39.5748 42.8606 37.8541 40.9369 36.1335C33.4446 29.1497 33.7483 29.2509 29.2935 30.8703C27.066 31.68 22.0037 32.2873 17.9538 32.3885C10.1578 32.3885 8.74029 33.097 5.90537 38.6638C4.99415 40.3845 3.27295 42.7124 1.95673 43.927C-0.270706 45.85 -0.371953 46.4573 0.539272 50.6071C1.14675 53.1375 1.95673 58.2994 2.36172 62.0443C2.9692 68.5221 3.27295 69.2305 7.01909 72.4694C9.24653 74.3925 11.7777 76.7204 12.6889 77.5301C13.9039 78.6435 14.4101 80.9714 14.5114 86.1333C14.6126 93.4208 15.8276 96.1536 19.0675 96.1536C19.9787 96.1536 20.9912 97.6718 21.6999 100.202C22.3074 102.429 23.1174 104.251 23.6236 104.251C24.0286 104.251 25.4461 107.591 26.661 111.639C28.7872 118.421 29.5972 119.534 36.7858 126.113C42.1519 131.174 45.5943 133.502 48.0242 133.906C50.5554 134.413 52.1753 135.526 53.3903 137.55C56.4277 142.712 61.6926 146.457 67.7674 147.874C71.9185 148.785 73.9435 149.898 75.6647 152.125C80.3221 158.299 83.8657 160.829 92.2692 164.17C103.204 168.421 107.153 171.862 109.279 179.048C111 185.323 111.405 202.53 109.785 205.566C108.165 208.501 104.216 207.995 101.483 204.352C100.166 202.732 97.6353 199.493 95.7116 197.267L92.2692 193.218L88.8268 196.558C87.0044 198.279 85.4856 200.607 85.4856 201.619C85.4856 202.631 84.3719 204.149 82.9545 205.06C79.7146 207.186 73.9435 217.206 74.7535 219.331C75.1584 220.242 74.551 222.773 73.4372 225.101C70.9061 230.364 70.7036 231.477 71.716 235.526C72.6273 239.372 70.8048 245.951 68.8811 245.951C66.8562 245.951 63.2113 250.404 63.2113 252.833C63.2113 254.25 62.0976 255.566 60.1739 256.578C56.3265 258.501 51.0616 265.688 51.0616 268.825C51.0616 270.141 52.3778 272.671 53.8965 274.493C55.5165 276.315 57.3389 279.351 58.1489 281.173C58.8576 283.096 60.5788 285.323 61.8951 286.133C64.2237 287.651 64.4262 287.55 66.9574 284.513C71.6148 278.845 75.0572 280.971 77.8921 291.193C78.2971 292.509 79.0058 293.521 79.5121 293.521C80.0183 293.521 80.4233 294.23 80.4233 295.04C80.4233 296.254 83.8657 304.453 87.6118 311.942C88.1181 312.955 88.5231 314.979 88.5231 316.497C88.5231 318.319 89.8393 320.647 92.4717 323.38L96.5216 327.428L95.3066 339.473L94.0917 351.517L90.4468 352.833C86.9031 354.048 79.2083 358.602 76.6772 361.031C75.8672 361.74 75.2597 366.396 74.9559 373.076L74.4497 383.906L77.7909 389.068C79.7146 391.902 81.537 396.254 81.942 398.683C82.347 401.213 83.4607 404.554 84.3719 406.274C85.8906 408.906 86.9031 409.513 90.7505 409.918C95.9141 410.525 98.6478 412.347 98.6478 415.08C98.6478 418.825 102.9 425.809 106.343 427.63C110.696 429.958 118.897 429.047 125.073 425.505C127.503 424.189 132.262 421.659 135.603 420.039C138.944 418.42 143.197 416.092 145.12 415.08C147.044 413.966 150.588 412.752 153.018 412.347C156.359 411.841 158.08 410.93 159.902 408.4C161.32 406.679 162.434 404.655 162.434 404.149C162.434 402.226 169.521 396.76 171.951 396.76C173.368 396.76 176.912 395.748 180.051 394.635C184.91 392.711 186.125 392.61 188.758 393.724C191.694 394.938 191.795 395.242 191.795 401.416C191.795 409.311 195.035 415.991 198.882 415.991C201.009 415.991 205.97 413.663 205.97 412.651C205.97 411.436 209.412 411.841 216.196 413.966C219.739 415.08 226.523 417.205 231.282 418.622C236.04 420.039 241.508 422.165 243.431 423.177C254.67 429.452 257.302 430.262 261.554 429.149C263.883 428.541 267.528 426.315 269.654 424.29C273.603 420.545 273.704 420.343 272.692 415.991C272.084 413.562 271.882 410.626 272.185 409.412C272.894 406.78 294.46 387.448 299.826 384.716C302.155 383.602 306.306 380.465 309.242 377.833C314.001 373.38 314.608 372.469 314.912 368.116C315.418 360.728 318.05 353.137 321.189 349.898C322.708 348.278 327.163 345.141 331.213 343.015C337.085 339.776 338.604 338.359 339.11 336.031C339.515 334.311 340.224 332.793 340.73 332.489C341.236 332.185 344.273 332.388 347.615 332.995C353.183 334.007 354.094 333.906 359.562 331.477C366.042 328.542 370.901 324.392 374.648 318.623C376.268 316.092 377.887 314.776 379.406 314.675C382.039 314.675 394.29 311.538 395.909 310.525C396.719 310.019 396.922 307.287 396.517 302.53L396.011 295.242L400.061 295.849C402.288 296.254 406.338 297.368 409.072 298.481C411.805 299.493 416.766 301.517 420.108 302.833C427.094 305.465 436.105 305.971 440.155 303.744C442.989 302.226 447.647 302.833 454.532 305.667C458.075 307.185 466.378 306.274 468.402 304.25C470.731 302.023 473.262 301.619 477.92 302.833C482.172 304.048 482.577 303.946 485.108 301.416C487.741 298.785 487.741 298.683 486.019 294.635C483.893 289.27 483.995 287.246 486.323 284.817C487.336 283.704 488.956 280.262 489.968 277.226C491.183 273.683 492.904 270.748 495.132 268.926C501.308 263.764 502.523 261.133 504.244 248.785C505.965 235.93 507.686 231.68 512.445 228.441C516.292 225.809 517.912 222.975 519.33 216.092C520.14 212.145 520.95 210.728 523.177 209.716C527.025 207.894 534.011 198.38 534.011 194.939C534.011 191.801 531.884 187.246 529.353 185.121C525.303 181.781 524.088 178.238 524.696 171.457C525.202 164.17 524.493 162.651 519.026 160.323C515.786 159.008 515.584 158.704 516.191 155.263C516.596 153.238 517.811 150 518.824 147.975C519.836 145.85 521.253 141.498 521.861 138.157C522.468 134.817 523.683 129.554 524.392 126.518C525.202 123.481 526.923 116.7 528.138 111.437L530.467 102.024L537.554 98.3803C541.503 96.356 545.958 93.4208 547.477 91.8013C550.615 88.6637 550.716 86.9431 548.388 77.4289C547.78 75.2022 546.869 70.9512 546.262 68.016C544.439 58.9067 541.807 54.2508 536.542 50.6071C531.986 47.4695 531.682 47.3683 527.126 48.5828C524.493 49.2913 520.849 50.7083 519.026 51.7205C517.204 52.8338 513.559 54.1496 510.926 54.7569C504.649 56.3764 501.105 58.1982 495.03 63.1577C484.197 71.8621 482.375 74.0888 482.375 77.935C482.375 86.6394 478.628 94.4329 469.921 103.846L463.34 110.83H451.393C438.94 110.931 436.611 111.437 432.055 115.688C430.334 117.206 429.726 118.927 429.726 122.064C429.726 126.923 428.612 129.352 422.942 136.842C419.399 141.599 414.539 150.607 414.539 152.429C414.539 152.834 412.717 154.959 410.489 157.085C406.844 160.627 406.439 161.639 406.439 165.991C406.439 168.724 406.945 171.255 407.452 171.558C409.274 172.672 408.565 177.732 406.338 179.757C405.123 180.769 402.389 184.21 400.162 187.348C396.213 193.117 391.252 196.356 381.836 199.392C378.394 200.404 377.685 200.303 373.433 197.975C370.8 196.558 368.269 195.344 367.763 195.344C366.649 195.344 363.105 199.493 361.182 203.137C360.473 204.453 359.258 206.68 358.448 208.097C356.929 210.931 352.677 213.562 349.741 213.562C348.02 213.562 343.463 215.182 336.882 218.218C332.934 219.939 323.012 220.141 321.594 218.319C321.088 217.712 319.67 214.068 318.455 210.424C315.215 200.809 312.279 196.254 306.913 192.307C302.965 189.372 301.851 187.854 300.737 183.704C298.206 174.696 296.08 164.574 296.08 161.842C296.08 156.275 288.486 145.141 282.614 142.105C280.488 140.991 279.981 140.081 280.386 138.664C280.69 137.55 279.374 130.364 277.45 122.57C275.425 114.777 273.805 106.174 273.805 103.441C273.805 97.9754 272.894 95.445 266.009 80.9714C263.478 75.7083 261.453 70.2427 261.352 68.8257C261.352 67.4087 262.364 63.0565 263.478 59.2104C264.896 54.5545 266.009 46.9634 266.617 36.9432L267.528 21.761L264.086 14.8785C262.162 11.1336 260.643 7.38865 260.643 6.68015C260.643 5.16193 256.796 0 255.783 0C255.378 0.101214 253.353 1.01212 251.329 2.02426Z" fill="white" stroke="#59DBAE" stroke-width="10" mask="url(#path-1-inside-1_832_3)"/>
<path d="M243.5 141C256.5 168.5 215.888 172.584 180 183" stroke="#0A0B0C" stroke-dasharray="2 2"/>
<path d="M442.5 188.5C378.5 200 413 254.5 406.524 269.5" stroke="#0A0B0C" stroke-dasharray="2 2"/>
<path d="M258 292.5C238.5 302 298 348.5 264.5 356" stroke="#0A0B0C" stroke-dasharray="2 2"/>
<path d="M425 262C327.5 310 294.427 241.111 259.273 278.711C246.272 248.716 149 271.165 149 332" stroke="#0A0B0C" stroke-dasharray="2 2"/>
<path d="M258.221 245.13C256.791 245.42 255.208 246.202 254.018 247.206C251.151 249.61 249.542 253.877 250.115 257.555C250.552 260.394 252.597 264.709 255.764 269.507C257.57 272.23 259.479 274.817 259.796 274.952C260.138 275.107 260.369 274.923 261.174 273.852C266.224 267.161 269.528 260.867 269.947 257.111C270.127 255.489 269.844 253.51 269.177 251.763C267.867 248.336 264.983 245.768 261.73 245.13C260.849 244.957 259.077 244.957 258.221 245.13ZM254.848 251.985C255.045 252.139 255.208 252.303 255.208 252.332C255.208 252.371 255.071 252.641 254.908 252.95C254.361 253.983 254.035 255.538 254.129 256.677C254.215 257.71 254.361 258.289 254.797 259.274L255.199 260.191L254.968 260.403C254.84 260.519 254.634 260.674 254.515 260.761C254.284 260.915 254.284 260.915 254.027 260.452C253.291 259.177 252.974 257.884 252.974 256.233C252.974 254.611 253.265 253.443 253.975 252.11C254.181 251.734 254.318 251.57 254.386 251.618C254.446 251.666 254.652 251.821 254.848 251.985ZM266.326 252.757C266.84 253.925 267.028 254.852 267.028 256.233C267.028 257.092 266.985 257.594 266.849 258.154C266.677 258.917 266.138 260.278 265.847 260.693L265.693 260.915L265.265 260.567C265.025 260.384 264.837 260.201 264.837 260.162C264.837 260.123 265.017 259.679 265.239 259.177C265.667 258.164 265.787 257.7 265.873 256.696C265.967 255.528 265.65 253.993 265.094 252.95C264.931 252.641 264.794 252.371 264.794 252.332C264.794 252.303 265 252.11 265.248 251.917L265.693 251.56L265.839 251.772C265.924 251.888 266.147 252.332 266.326 252.757ZM260.669 254.398C261.764 254.92 262.098 256.455 261.345 257.488C260.455 258.704 258.709 258.299 258.324 256.783C257.913 255.209 259.325 253.771 260.669 254.398Z" fill="#59DBAE"/>
<path d="M225.687 279.92H224.805C224.665 279.92 224.595 279.99 224.595 280.13V284.302H219.891V280.13C219.891 279.99 219.821 279.92 219.681 279.92H218.799C218.659 279.92 218.589 279.99 218.589 280.13V289.79C218.589 289.93 218.659 290 218.799 290H219.681C219.821 290 219.891 289.93 219.891 289.79V285.464H224.595V289.79C224.595 289.93 224.665 290 224.805 290H225.687C225.827 290 225.897 289.93 225.897 289.79V280.13C225.897 279.99 225.827 279.92 225.687 279.92ZM233.517 289.79C233.419 289.286 233.377 288.852 233.377 288.278V283.252C233.377 283.112 233.307 283.042 233.167 283.042H232.341C232.201 283.042 232.131 283.112 232.131 283.252V288.096C231.725 288.558 231.151 289.034 230.409 289.034C229.093 289.034 228.771 288.432 228.771 286.71V283.252C228.771 283.112 228.701 283.042 228.561 283.042H227.735C227.595 283.042 227.525 283.112 227.525 283.252V287.424C227.525 289.342 228.365 290.14 229.821 290.14C230.913 290.14 231.739 289.524 232.229 289.034V289.09C232.299 289.65 232.565 290 232.985 290H233.307C233.447 290 233.545 289.93 233.517 289.79ZM236.955 281.754C236.997 281.838 237.095 281.866 237.193 281.824L239.279 280.886C239.405 280.83 239.447 280.704 239.377 280.592L238.943 279.836C238.873 279.724 238.747 279.71 238.635 279.794L236.787 281.138C236.717 281.194 236.703 281.32 236.745 281.39L236.955 281.754ZM240.455 289.79C240.357 289.286 240.315 288.852 240.315 288.278V285.086C240.315 283.476 239.181 282.902 237.529 282.902C236.367 282.902 235.667 283.196 235.191 283.476C235.065 283.546 235.023 283.658 235.093 283.798L235.345 284.316C235.415 284.442 235.527 284.484 235.695 284.414C236.129 284.204 236.675 284.008 237.361 284.008C238.537 284.008 239.069 284.428 239.069 285.282V285.8C238.523 285.786 237.963 285.772 237.501 285.772C235.597 285.772 234.519 286.528 234.519 287.97C234.533 289.412 235.303 290.14 236.773 290.14C237.781 290.14 238.719 289.384 239.153 288.95L239.167 289.09C239.237 289.65 239.503 290 239.923 290H240.245C240.385 290 240.483 289.93 240.455 289.79ZM236.997 289.048C236.115 289.048 235.793 288.614 235.793 287.97C235.793 287.298 236.255 286.78 237.501 286.78C237.921 286.78 238.495 286.794 239.069 286.808V287.928C238.649 288.348 237.837 289.048 236.997 289.048ZM245.361 282.902C244.241 282.902 243.443 283.546 242.981 284.036V283.91C242.981 283.35 242.701 283.042 242.253 283.042H241.945C241.805 283.042 241.735 283.112 241.735 283.252V289.79C241.735 289.93 241.805 290 241.945 290H242.771C242.911 290 242.981 289.93 242.981 289.79V285.1C243.401 284.61 244.073 284.022 244.941 284.022C246.271 284.022 246.481 284.778 246.481 286.192V289.79C246.481 289.93 246.551 290 246.691 290H247.517C247.657 290 247.727 289.93 247.727 289.79V285.618C247.727 283.518 246.775 282.902 245.361 282.902ZM255.043 289.79C254.945 289.286 254.903 288.852 254.903 288.278V283.252C254.903 283.112 254.833 283.042 254.693 283.042H253.867C253.727 283.042 253.657 283.112 253.657 283.252V288.096C253.251 288.558 252.677 289.034 251.935 289.034C250.619 289.034 250.297 288.432 250.297 286.71V283.252C250.297 283.112 250.227 283.042 250.087 283.042H249.261C249.121 283.042 249.051 283.112 249.051 283.252V287.424C249.051 289.342 249.891 290.14 251.347 290.14C252.439 290.14 253.265 289.524 253.755 289.034V289.09C253.825 289.65 254.091 290 254.511 290H254.833C254.973 290 255.071 289.93 255.043 289.79ZM261.589 288.95L261.253 288.404C261.169 288.278 261.043 288.278 260.903 288.39C260.539 288.684 259.839 289.048 259.209 289.048C257.963 289.048 257.319 288.124 257.319 286.514C257.319 284.89 257.963 284.008 259.209 284.008C259.811 284.008 260.385 284.26 260.735 284.47C260.903 284.568 261.057 284.526 261.127 284.386L261.393 283.868C261.463 283.756 261.449 283.644 261.351 283.574C260.735 283.196 260.147 282.902 259.097 282.902C257.655 282.902 256.045 283.728 256.045 286.514C256.045 289.3 257.627 290.126 259.097 290.14C260.245 290.154 261.085 289.608 261.491 289.23C261.575 289.16 261.659 289.048 261.589 288.95ZM265.493 290.14C267.481 290.14 268.923 288.866 268.923 286.528C268.923 283.98 267.481 282.902 265.493 282.902C263.491 282.902 262.049 283.896 262.049 286.528C262.049 288.866 263.491 290.14 265.493 290.14ZM265.493 289.048C264.163 289.048 263.323 288.334 263.323 286.528C263.323 284.694 264.163 284.008 265.493 284.008C266.809 284.008 267.649 284.694 267.649 286.528C267.649 288.334 266.809 289.048 265.493 289.048ZM270.027 288.754L269.061 291.036C269.019 291.134 269.061 291.232 269.145 291.288L269.495 291.484C269.593 291.526 269.691 291.512 269.761 291.428L271.231 289.44C271.329 289.314 271.287 289.174 271.161 289.104L270.349 288.642C270.223 288.572 270.083 288.614 270.027 288.754ZM281.686 279.78C281 279.78 280.118 279.836 279.25 279.92C279.11 279.934 279.04 279.99 279.04 280.13V289.79C279.04 289.93 279.11 290 279.25 290H280.132C280.272 290 280.342 289.93 280.342 289.79V285.87C280.608 285.884 281 285.884 281.532 285.884C283.184 285.884 285.074 285.086 285.074 282.804C285.074 280.998 284.024 279.78 281.686 279.78ZM281.546 284.736C280.986 284.736 280.608 284.722 280.342 284.708V280.984C280.804 280.956 281.266 280.928 281.7 280.928C283.072 280.928 283.716 281.684 283.716 282.804C283.716 283.84 283.072 284.736 281.546 284.736ZM288.387 282.902C286.413 282.902 285.125 284.106 285.125 286.528C285.125 289.286 286.973 290.14 288.513 290.14C289.927 290.14 290.837 289.524 291.285 289.174C291.397 289.104 291.467 289.02 291.411 288.908L291.117 288.404C291.033 288.264 290.935 288.18 290.823 288.264C290.389 288.6 289.633 289.02 288.765 289.048C287.421 289.076 286.525 288.572 286.413 287.018L290.613 286.99C291.341 286.99 291.565 286.626 291.565 286.038V286.024C291.565 284.792 290.921 282.902 288.387 282.902ZM286.413 286.024C286.525 284.582 287.169 284.008 288.345 284.008C289.745 284.008 290.235 284.68 290.319 286.024H286.413ZM295.792 282.93C295.12 283.126 294.42 283.49 293.832 283.994V283.91C293.832 283.35 293.552 283.042 293.104 283.042H292.796C292.656 283.042 292.586 283.112 292.586 283.252V289.79C292.586 289.93 292.656 290 292.796 290H293.622C293.762 290 293.832 289.93 293.832 289.79V285.394C293.832 284.736 294.616 284.484 295.848 284.288C295.988 284.26 296.058 284.218 296.058 284.078L296.072 283.098C296.086 282.944 295.96 282.874 295.792 282.93ZM299.027 281.754C299.069 281.838 299.167 281.866 299.251 281.824L301.351 280.886C301.477 280.83 301.505 280.704 301.449 280.592L301.015 279.836C300.945 279.724 300.819 279.71 300.707 279.794L298.845 281.138C298.775 281.194 298.761 281.32 298.803 281.39L299.027 281.754ZM302.709 289.79C302.611 289.286 302.569 288.852 302.569 288.278V283.252C302.569 283.112 302.499 283.042 302.359 283.042H301.533C301.393 283.042 301.323 283.112 301.323 283.252V288.096C300.917 288.558 300.343 289.034 299.601 289.034C298.285 289.034 297.963 288.432 297.963 286.71V283.252C297.963 283.112 297.893 283.042 297.753 283.042H296.927C296.787 283.042 296.717 283.112 296.717 283.252V287.424C296.717 289.342 297.557 290.14 299.013 290.14C300.105 290.14 300.931 289.524 301.421 289.034V289.09C301.491 289.65 301.757 290 302.177 290H302.499C302.639 290 302.737 289.93 302.709 289.79Z" fill="#242A28"/>
<path d="M260 245C209.5 194 207.888 174.171 172 184.588" stroke="#0A0B0C" stroke-dasharray="2 2"/>
<g clip-path="url(#clip0_832_3)">
<path d="M249.394 135.455L246 134V140H249.5C249.776 140 250 139.776 250 139.5V136.374C250 136.178 249.943 135.987 249.835 135.823C249.727 135.66 249.574 135.532 249.394 135.455ZM230 136.374V139.5C230 139.776 230.224 140 230.5 140H234V134L230.606 135.455C230.426 135.532 230.273 135.66 230.165 135.823C230.057 135.987 230 136.178 230 136.374ZM244.514 131.709L243 130.8V127.207C243 126.942 242.895 126.688 242.707 126.5L240.353 124.147C240.158 123.951 239.842 123.951 239.647 124.147L237.293 126.5C237.106 126.687 237 126.942 237 127.207V130.8L235.486 131.709C235.338 131.798 235.215 131.923 235.13 132.074C235.045 132.224 235 132.394 235 132.566V140H238V137C238 135.895 238.896 135 240 135C241.104 135 242 135.895 242 137V140H245V132.566C245 132.215 244.816 131.889 244.514 131.709Z" fill="#46C89B"/>
</g>
<g clip-path="url(#clip1_832_3)">
<path d="M461.394 185.455L458 184V190H461.5C461.776 190 462 189.776 462 189.5V186.374C462 186.178 461.943 185.987 461.835 185.823C461.727 185.66 461.574 185.532 461.394 185.455ZM442 186.374V189.5C442 189.776 442.224 190 442.5 190H446V184L442.606 185.455C442.426 185.532 442.273 185.66 442.165 185.823C442.057 185.987 442 186.178 442 186.374ZM456.514 181.709L455 180.8V177.207C455 176.942 454.895 176.688 454.707 176.5L452.353 174.147C452.158 173.951 451.842 173.951 451.647 174.147L449.293 176.5C449.106 176.687 449 176.942 449 177.207V180.8L447.486 181.709C447.338 181.798 447.215 181.923 447.13 182.074C447.045 182.224 447 182.394 447 182.566V190H450V187C450 185.895 450.896 185 452 185C453.104 185 454 185.895 454 187V190H457V182.566C457 182.215 456.816 181.889 456.514 181.709Z" fill="#46C89B"/>
</g>
<path d="M154 167H174" stroke="#36AF85" stroke-width="2" stroke-linecap="round" stroke-linejoin="round"/>
<path d="M171 167H157C156.448 167 156 167.448 156 168V186C156 186.552 156.448 187 157 187H171C171.552 187 172 186.552 172 186V168C172 167.448 171.552 167 171 167Z" stroke="#36AF85" stroke-width="2" stroke-linejoin="round"/>
<path d="M162 181H166V187H162V181Z" stroke="#36AF85" stroke-width="2" stroke-linecap="round" stroke-linejoin="round"/>
<path d="M159.5 171H160.5M159.5 174H160.5M163.5 171H164.5M163.5 174H164.5M167.5 171H168.5M167.5 174H168.5" stroke="#36AF85" stroke-width="2" stroke-linecap="round"/>
<path d="M154 187H174M166 181H167C167.276 181 167.505 180.774 167.452 180.503C167.176 179.083 165.735 178 164 178C162.265 178 160.824 179.083 160.548 180.503C160.495 180.774 160.724 181 161 181H162" stroke="#36AF85" stroke-width="2" stroke-linecap="round" stroke-linejoin="round"/>
<path d="M424.25 260.75L429.409 255.591C429.618 255.382 429.866 255.216 430.139 255.103C430.412 254.99 430.705 254.932 431 254.932C431.295 254.932 431.588 254.99 431.861 255.103C432.134 255.216 432.382 255.382 432.591 255.591L437.75 260.75M436.25 259.25L437.659 257.841C437.868 257.632 438.116 257.466 438.389 257.353C438.662 257.24 438.955 257.182 439.25 257.182C439.545 257.182 439.838 257.24 440.111 257.353C440.384 257.466 440.632 257.632 440.841 257.841L443.75 260.75M425.75 264.5H442.25C442.648 264.5 443.029 264.342 443.311 264.061C443.592 263.779 443.75 263.398 443.75 263V251C443.75 250.602 443.592 250.221 443.311 249.939C443.029 249.658 442.648 249.5 442.25 249.5H425.75C425.352 249.5 424.971 249.658 424.689 249.939C424.408 250.221 424.25 250.602 424.25 251V263C424.25 263.398 424.408 263.779 424.689 264.061C424.971 264.342 425.352 264.5 425.75 264.5ZM436.25 253.25H436.258V253.258H436.25V253.25ZM436.625 253.25C436.625 253.349 436.585 253.445 436.515 253.515C436.445 253.585 436.349 253.625 436.25 253.625C436.151 253.625 436.055 253.585 435.985 253.515C435.915 253.445 435.875 253.349 435.875 253.25C435.875 253.151 435.915 253.055 435.985 252.985C436.055 252.915 436.151 252.875 436.25 252.875C436.349 252.875 436.445 252.915 436.515 252.985C436.585 253.055 436.625 253.151 436.625 253.25Z" stroke="#36AF85" stroke-width="1.5" stroke-linecap="round" stroke-linejoin="round"/>
<path d="M258.525 344.176L255.244 347.464C254.883 347.823 254.901 348.255 255.131 348.728L255.225 348.93L255.08 349.066L253.973 350.111L254.99 351.123L256.031 350.013L256.167 349.872L256.364 349.961C256.865 350.209 257.33 350.228 257.662 349.895L260.953 346.602L260.475 346.125L258.333 348.264L257.883 347.805L260.015 345.671L259.505 345.153L257.372 347.296L256.917 346.841L259.05 344.699L258.525 344.176ZM247.358 344.305C247.089 344.733 247.048 345.281 247.202 345.926C247.384 346.691 247.843 347.577 248.487 348.414C249.769 350.092 250.833 350.669 252.558 350.983L252.67 351.002C253.308 351.756 253.945 352.506 254.583 353.261H256.322L247.358 344.305ZM252.422 351.588L250.653 353.261H252.98L253.434 352.778L252.422 351.588ZM247.23 353.917V356.894L248.004 354.573H259.115L259.889 356.894V353.917H247.23ZM248.613 355.417L248.144 356.823H250.255L250.725 355.417H248.613ZM251.611 355.417L251.142 356.823H253.139V355.417H251.611ZM253.983 355.417V356.823H255.98L255.511 355.417H253.983ZM256.392 355.417L256.861 356.823H258.975L258.506 355.417H256.392ZM260.733 355.502V364.323H264.436C264.633 363.47 265.401 362.823 266.311 362.823C267.22 362.823 267.989 363.47 268.186 364.323H268.889V361.323L266.255 360.667H261.389V356.823H264.281L263.958 356.12L260.733 355.502ZM247.23 357.667V363.02L249.207 364.323H249.903C250.097 363.47 250.865 362.823 251.78 362.823C252.689 362.823 253.458 363.47 253.655 364.323H259.889V357.667H259.233V361.417H247.887V357.667H247.23ZM262.233 357.667V359.823H265.626L264.548 357.667H262.233ZM249.058 358.558L249.808 359.308H250.558L251.311 358.558H249.058ZM248.683 359.823V360.667H258.436V359.823H248.683ZM251.78 363.667C251.175 363.667 250.697 364.145 250.697 364.745C250.697 365.345 251.175 365.823 251.78 365.823C252.38 365.823 252.858 365.345 252.858 364.745C252.858 364.145 252.38 363.667 251.78 363.667ZM266.311 363.667C265.711 363.667 265.233 364.145 265.233 364.745C265.233 365.345 265.711 365.823 266.311 365.823C266.911 365.823 267.389 365.345 267.389 364.745C267.389 364.145 266.911 363.667 266.311 363.667Z" fill="#36AF85"/>
<path d="M159.067 339.925V354.275H139.933V339.925L149.5 332.75L159.067 339.925ZM153.025 350.65H152.017V346.421H150.808V342.896L150.82 342.661C150.87 342.124 151.092 341.659 151.49 341.261C151.92 340.83 152.43 340.606 153.025 340.583V350.65ZM147.183 345.816H147.083C146.607 345.817 146.204 345.652 145.871 345.318C145.537 344.985 145.371 344.582 145.371 344.104V340.579H146.379V344.204H147.183V340.579H148.192V344.204H148.996V340.579H150.004V344.104L149.997 344.28C149.961 344.682 149.797 345.026 149.505 345.317C149.171 345.65 148.769 345.816 148.292 345.816H148.192V350.65H147.183V345.816ZM156.85 341.033L156.81 341.003L149.56 335.565L149.5 335.521L149.44 335.565L142.19 341.003L142.15 341.033V352.059H156.85V341.033Z" fill="#36AF85" stroke="white" stroke-width="0.2"/>
<defs>
<clipPath id="clip0_832_3">
<rect width="20" height="16" fill="white" transform="translate(230 124)"/>
</clipPath>
<clipPath id="clip1_832_3">
<rect width="20" height="16" fill="white" transform="translate(442 174)"/>
</clipPath>
</defs>
</svg>
