<svg width="508" height="400" viewBox="0 0 508 400" fill="none" xmlns="http://www.w3.org/2000/svg">
<g filter="url(#filter0_d_104_2421)">
<mask id="path-1-inside-1_104_2421" fill="white">
<path d="M234.928 0.949677C234.377 2.50958 227.863 6.45517 227.863 5.2623C227.863 4.80353 225.569 4.52826 222.632 4.80353C218.32 5.0788 217.127 5.62933 215.384 7.73978C213.365 10.309 213.365 10.309 215.108 13.1535C216.943 16.1815 217.402 19.8518 216.118 21.3199C214.466 23.2469 212.998 29.9452 213.365 33.3403C213.64 35.3589 213.457 39.5798 212.998 42.7914C212.539 46.6452 212.539 49.0309 213.181 49.6732C213.64 50.132 214.099 52.3342 214.099 54.4446C214.099 56.7386 214.649 58.9408 215.475 59.7666C217.31 61.51 217.219 62.1523 215.108 62.1523C213.181 62.1523 210.796 66.4649 209.878 71.5116C209.511 73.1633 208.777 75.1819 208.135 75.916C207.492 76.6501 206.758 78.1182 206.575 79.1276C206.391 80.5039 205.565 80.9627 203.547 80.9627C201.712 81.0545 200.702 81.5132 200.519 82.6143C200.335 83.4402 199.785 83.899 199.326 83.6237C198.775 83.3484 198.133 83.899 197.858 85.0001C197.582 86.1012 197.032 86.927 196.665 86.927C195.472 86.927 194.921 83.1649 195.747 80.9627C196.298 79.4028 196.206 78.4852 195.197 77.7512C194.554 77.1089 193.912 76.0995 193.912 75.4572C193.912 74.8149 193.27 73.8056 192.536 73.1633C191.526 72.3375 191.435 71.6034 192.077 70.4105C193.453 67.8413 193.178 66.0061 191.251 64.0792C189.967 62.7946 189.6 61.4182 189.875 58.5737C190.058 56.5551 189.875 54.8116 189.416 54.8116C188.498 54.8116 187.214 51.3249 187.397 49.4897C187.489 48.8474 186.847 48.1133 185.929 47.7463C183.727 46.9205 181.158 43.7089 181.066 41.6902C181.066 40.8644 180.607 40.1304 180.057 40.1304C179.414 40.1304 179.598 39.3045 180.424 37.9282C181.8 35.9095 181.8 35.5424 180.515 34.5331C179.781 33.8908 179.231 32.5144 179.323 31.5051C179.414 30.404 179.139 28.8441 178.772 27.9265C178.405 27.0089 178.038 25.3573 177.946 24.2562C177.854 23.0634 177.12 22.1458 176.019 21.9622C175.01 21.7787 173.45 20.9529 172.624 20.2188C171.156 18.9342 170.697 19.1178 167.394 21.687C165.467 23.2469 163.448 24.5315 162.898 24.5315C161.613 24.5315 157.301 32.0557 156.658 35.5424C156.291 37.1024 155.649 38.5705 155.282 38.8457C154.823 39.121 154.456 40.0386 154.456 40.9562C154.456 43.3419 152.346 47.471 151.061 47.471C150.419 47.471 149.593 47.471 149.226 47.471C148.767 47.471 148.492 46.7369 148.4 45.8194C148.308 43.3419 147.024 41.0479 145.739 41.0479C145.097 41.0479 143.262 39.5798 141.61 37.7447C139.041 34.8084 138.49 34.5331 136.288 35.3589C134.912 35.9095 131.333 36.5518 128.397 36.8271C125.369 37.1024 122.708 37.7447 122.341 38.2034C122.066 38.754 120.322 38.9375 118.395 38.754C116.56 38.6622 115 38.8457 115 39.2128C115 40.7727 111.33 40.7727 108.944 39.121C107.568 38.2034 106.008 37.7447 105.549 38.0199C105.182 38.2952 102.705 38.5705 100.227 38.754C96.9238 38.9375 95.5474 38.6622 94.9051 37.6529C94.3546 36.6436 93.6205 36.4601 91.9689 37.0106C90.776 37.4694 89.1244 37.8364 88.3903 37.8364C87.6562 37.8364 86.4634 39.0293 85.6376 40.4974C83.4354 44.7183 81.5085 46.3699 79.9486 45.5441C79.031 45.0853 77.4711 45.2688 75.6359 46.1864C72.6079 47.7463 69.1211 47.1957 69.1211 45.1771C69.1211 43.1584 66.2766 42.6996 64.3497 44.443C62.6063 46.0029 62.4228 46.0029 59.0277 43.9842C54.7151 41.5067 52.0541 41.415 50.8612 43.5254C50.0354 45.0853 49.7601 44.9935 47.6497 42.6996C46.3651 41.3232 44.6217 39.8551 43.8876 39.3963C42.603 38.754 42.603 38.2034 43.5206 36.093C44.5299 33.9826 44.4382 33.432 43.3371 32.698C42.603 32.2392 41.5937 32.0557 40.9514 32.3309C40.3091 32.5144 39.575 32.3309 39.208 31.7804C38.9327 31.2298 37.4646 31.1381 35.9964 31.4133C33.0602 32.0557 32.8767 31.7804 34.3448 29.0276C34.8953 27.9265 35.0788 26.5502 34.8036 25.8161C34.4365 24.8068 33.2437 25.2656 29.8486 27.743C24.2514 31.7804 21.2234 32.3309 15.5344 30.5875C13.0569 29.8535 10.6712 29.3947 10.2124 29.67C9.75361 29.9452 8.74427 31.6886 7.82669 33.5238C7.00087 35.2672 5.07395 37.4694 3.51406 38.2952C1.31187 39.5798 0.853075 40.3139 1.03659 42.5161C1.22011 43.9842 1.86241 45.8194 2.41296 46.5534C4.98219 49.8567 5.6245 51.9672 5.16571 56.0045C4.70692 60.0419 4.79867 60.2254 7.82669 61.51C9.66185 62.244 10.9465 63.5287 11.0382 64.538C11.497 69.6765 13.8827 77.1089 15.2591 77.8429C16.0849 78.3935 16.819 79.7699 16.819 81.0545C16.819 82.2473 17.8283 84.1743 19.1129 85.2753C20.3976 86.3764 21.4069 87.9363 21.4069 88.8539C21.4069 89.7715 22.4162 91.6067 23.6091 93.0748C24.8019 94.5429 26.0866 97.2039 26.3618 99.0391C27.0959 103.902 28.8393 107.114 30.5827 107.114C31.592 107.114 32.7849 108.674 33.7942 111.151C34.8036 113.445 36.2717 115.464 37.281 115.739C38.4739 116.014 38.8409 116.657 38.4739 117.849C37.9234 119.501 40.9514 121.336 49.2096 124.456C50.586 125.007 51.6871 126.016 51.6871 126.842C51.6871 127.576 52.0541 128.218 52.5129 128.218C52.9717 128.218 55.1739 129.962 57.3761 132.164C61.2299 135.834 66.5519 138.312 70.7728 138.312C71.7821 138.312 73.4337 139.229 74.3513 140.422C76.4618 143.083 80.4991 145.652 82.6096 145.652C87.2892 145.744 98.4837 151.158 98.4837 153.36C98.4837 153.91 99.7683 155.837 101.328 157.489C102.888 159.232 104.54 161.618 104.999 162.811C106.1 165.839 106.008 170.794 104.815 171.987C104.173 172.629 103.714 175.474 103.622 178.41C103.439 183.273 101.695 188.778 100.411 188.778C100.135 188.778 98.8507 187.677 97.5661 186.393C96.3733 185.108 94.5381 183.64 93.437 183.273C91.8771 182.631 90.2255 179.419 88.0233 172.904C87.2892 170.61 84.8117 170.977 84.1694 173.638C83.8942 174.923 83.0683 175.932 82.3343 175.932C81.6002 175.932 81.0497 176.85 81.0497 177.859C81.0497 178.96 80.0403 180.796 78.7557 181.988C77.5629 183.089 76.2782 185.108 75.9112 186.393C75.6359 187.769 74.5348 189.237 73.6173 189.696C71.1398 191.072 68.8458 196.578 69.4881 199.422C69.9469 201.166 69.4881 202.45 67.7447 204.469C65.0838 207.772 64.992 208.048 66.8272 210.433C68.387 212.452 68.6623 218.692 67.1942 219.517C66.7354 219.884 65.9096 221.169 65.4508 222.362C64.9002 223.647 63.7991 224.564 62.698 224.564C61.6887 224.564 60.8629 225.206 60.8629 225.94C60.8629 226.675 60.4958 227.317 59.9453 227.317C59.4865 227.317 59.0277 228.326 59.0277 229.519C59.0277 231.538 57.3761 232.822 54.4398 233.281C52.2376 233.556 48.9343 237.043 48.9343 238.97C48.9343 241.631 53.981 253.009 55.1739 253.009C55.6327 253.009 57.2843 254.936 59.0277 257.23C62.2393 261.726 64.625 261.726 62.6063 257.23C61.3217 254.477 62.331 252.826 66.0931 251.725C67.7447 251.174 68.2953 251.541 68.7541 253.376C69.0294 254.569 70.0387 256.312 71.048 257.23C71.9656 258.056 72.7914 259.34 72.7914 260.074C72.7914 260.717 73.1585 261.267 73.6173 261.267C73.9843 261.267 74.6266 263.011 74.8101 265.121C75.0854 267.323 76.37 270.718 77.7464 272.645C79.031 274.572 80.1321 276.774 80.1321 277.509C80.1321 278.151 81.1414 280.353 82.426 282.28C83.6189 284.299 84.9035 287.051 85.2705 288.52C85.6376 289.896 86.9222 292.006 88.115 293.107C90.2255 295.126 90.9595 299.255 89.3079 300.265C88.2068 300.907 88.6656 305.128 90.042 307.789C91.4183 310.266 91.5101 318.524 90.2255 317.699C89.7667 317.423 87.9315 317.79 86.1881 318.616C84.4447 319.442 82.6096 319.901 82.059 319.626C81.6002 319.258 80.6826 319.901 80.1321 320.91C79.5815 321.919 78.2052 322.745 77.1041 322.745C73.1585 322.745 72.8832 323.663 72.975 334.49C73.0667 340.179 73.4337 345.042 73.8008 345.318C74.1678 345.501 74.4431 347.428 74.4431 349.447C74.4431 351.466 74.9019 353.668 75.4524 354.218C76.003 354.769 76.4618 355.87 76.4618 356.696C76.4618 357.43 77.2876 358.623 78.2969 359.265C79.5815 359.999 80.1321 361.375 80.1321 363.486C80.1321 365.229 80.4991 366.881 81.0497 367.248C81.5085 367.523 81.692 368.349 81.3249 369.083C80.8661 370.459 81.7837 370.827 84.9035 370.551C85.7293 370.459 86.6469 371.194 87.0139 372.295C87.381 373.396 88.3903 374.13 89.7667 374.13C91.8771 374.13 92.9782 376.148 92.9782 380.278C92.9782 381.562 93.5288 382.388 94.3546 382.388C95.0887 382.388 96.3733 383.397 97.1991 384.682C98.3002 386.334 99.493 386.976 101.603 386.976C103.255 386.976 105.09 387.526 105.733 388.077C106.65 389.086 107.109 388.995 108.027 387.618C108.669 386.792 109.953 386.058 110.779 386.058C111.605 386.058 112.247 385.324 112.247 384.223C112.247 382.847 112.89 382.388 114.908 382.388C116.744 382.388 118.028 381.654 119.038 380.094C120.047 378.534 121.423 377.8 123.258 377.8C126.011 377.8 131.975 374.864 131.058 373.946C130.783 373.671 131.15 372.937 131.975 372.295C133.168 371.285 133.719 371.377 135.37 372.845C136.655 374.038 137.389 374.222 137.664 373.487C137.848 372.845 138.674 372.662 139.316 372.845C140.05 373.12 141.151 373.029 141.794 372.57C142.436 372.203 143.629 371.836 144.363 371.744C145.097 371.652 146.657 371.561 147.85 371.469C148.951 371.469 149.868 370.827 149.868 370.184C149.868 369.634 150.511 367.89 151.245 366.514C152.254 364.495 152.346 363.394 151.612 362.018C150.327 359.54 151.061 359.081 154.364 360.183C157.759 361.375 163.081 360.274 165.742 357.797C167.211 356.512 168.587 356.145 170.789 356.42C172.441 356.696 174.276 356.42 175.01 355.87C176.019 355.044 176.57 355.686 177.763 359.54C178.68 362.109 179.139 364.77 178.864 365.413C178.68 366.055 179.231 368.991 180.148 371.928C181.617 376.883 181.984 377.341 184.369 377.341C186.663 377.341 187.03 376.883 187.856 373.396L188.865 369.542L192.26 371.836C196.298 374.589 196.665 374.589 196.665 372.478C196.665 371.561 197.307 370.735 198.041 370.735C198.775 370.735 199.418 371.285 199.418 372.019C199.418 372.662 199.785 373.212 200.243 373.212C200.702 373.212 202.354 374.222 203.914 375.506C205.841 377.25 207.309 377.708 208.869 377.341C210.52 376.883 211.53 377.25 212.356 378.534C213.09 379.452 214.282 380.369 215.016 380.461C220.155 381.012 221.99 381.287 222.541 381.379C222.908 381.379 222.999 382.021 222.724 382.755C222.449 383.397 223.366 384.682 224.651 385.508C226.578 386.792 227.312 386.884 228.413 385.967C229.423 385.141 229.973 385.141 231.074 386.058C231.808 386.609 232.818 386.884 233.368 386.517C233.827 386.242 234.744 387.068 235.203 388.352C236.029 390.463 236.488 390.738 238.69 390.187C240.066 389.82 241.351 389.27 241.626 388.995C241.902 388.628 243.278 386.609 244.654 384.407C246.031 382.296 248.049 379.635 249.059 378.626C250.894 376.791 250.986 375.231 249.334 371.102C248.783 369.634 255.757 362.109 261.63 357.797C263.19 356.696 264.658 354.585 265.025 353.025C265.85 349.172 268.695 347.428 273.008 348.071C274.935 348.438 276.953 348.254 277.596 347.703C278.238 347.153 280.348 346.511 282.183 346.144C284.477 345.685 286.588 344.4 288.515 342.198C291.267 339.17 291.359 338.711 290.809 333.664C290.35 329.994 290.533 327.608 291.359 326.232C292.002 325.039 292.552 323.479 292.644 322.745C293.011 318.616 295.213 313.202 297.232 311.459C298.516 310.358 301.636 308.982 304.297 308.431L309.069 307.513L309.344 301.824C309.619 296.961 309.894 296.135 311.363 296.135C312.372 296.135 314.115 297.237 315.4 298.521C317.419 300.815 318.061 300.907 322.557 300.448C326.136 299.989 328.062 300.173 329.439 301.182C331.549 302.65 332.467 302.191 332.467 299.714C332.467 298.796 333.017 297.512 333.66 296.869C334.302 296.227 335.128 294.943 335.495 294.117C335.954 292.924 336.688 292.649 338.706 293.016C340.909 293.474 341.734 293.107 343.386 291.089C345.772 287.969 345.772 287.051 343.753 285.491C342.193 284.39 342.193 284.207 343.661 282.739C344.946 281.362 346.689 281.179 353.021 281.271C365.316 281.546 368.803 279.16 365.5 272.829C364.582 270.902 363.389 268.241 362.839 266.681L361.921 264.02H366.417C370.179 264.02 371.556 264.571 375.318 267.507C383.117 273.655 385.687 274.756 393.119 275.49C399.634 276.04 400.276 275.949 402.662 273.838L405.231 271.636L411.012 273.563C415.416 275.031 416.884 275.949 417.343 277.6C417.802 279.435 418.261 279.619 421.289 279.068C425.785 278.334 432.483 275.398 434.869 273.104C436.704 271.361 436.796 271.361 439.273 274.205C442.118 277.325 445.605 277.6 446.063 274.572C446.247 273.563 446.522 272.278 446.614 271.82C446.798 271.269 446.981 270.443 447.165 269.984C447.256 269.434 447.715 268.516 448.266 267.966C449.55 266.314 448.449 264.02 446.43 264.02C443.769 264.02 444.137 258.973 446.889 257.689C448.633 256.863 448.908 256.221 448.449 254.202C448.082 252.826 447.807 251.266 447.899 250.715C448.357 246.953 448.908 245.944 451.294 244.751C455.606 242.64 458.267 239.154 457.9 236.217C457.717 234.658 457.992 233.74 458.818 233.74C459.46 233.74 460.011 232.731 460.011 231.354C460.011 229.794 460.561 228.785 461.846 228.51C462.855 228.234 463.681 227.959 463.681 227.867C463.681 227.867 463.039 225.757 462.305 223.28C461.387 220.16 461.204 218.416 461.846 217.774C462.305 217.315 462.763 216.214 462.763 215.388C462.763 210.984 470.379 203.276 473.04 204.928C473.591 205.295 473.866 205.02 473.591 204.377C473.407 203.643 472.398 202.726 471.389 202.175C470.471 201.625 469.462 201.074 469.278 200.982C469.095 200.891 471.297 198.413 474.141 195.66C476.986 192.816 479.647 190.705 480.014 190.981C481.115 191.623 482.308 190.43 484.327 186.485C485.336 184.558 486.988 181.805 488.089 180.52C490.566 177.584 490.107 172.629 486.988 169.05C484.327 165.931 480.932 155.103 480.748 149.322C480.656 145.377 480.564 145.193 477.261 144.459C473.132 143.45 473.04 142.716 476.068 139.046C478.638 136.018 479.005 132.714 476.986 130.971C475.151 129.503 475.243 127.759 477.169 125.832C478.362 124.731 478.913 122.437 479.005 118.4C479.188 114.087 479.922 111.426 481.574 108.582C483.225 105.737 483.868 103.352 483.868 99.9566C483.868 95.9193 484.235 95.0017 486.253 93.6253C487.63 92.7077 489.74 90.9644 491.025 89.7715C492.31 88.5786 494.695 87.0187 496.439 86.3764C501.027 84.4495 501.669 81.8803 500.476 69.9518C498.916 54.4446 497.815 50.5908 494.053 46.9205C491.117 44.1677 490.291 43.8007 485.703 43.8007C482.033 43.8007 479.463 44.443 476.527 46.0029C474.233 47.2875 467.443 50.6826 461.295 53.7106C445.788 61.3265 442.485 63.6204 442.76 66.0979C442.852 67.199 442.577 71.4199 442.21 75.4572L441.384 82.7061L432.942 91.2396C423.124 101.058 421.197 102.159 415.783 100.324C413.489 99.4978 411.471 99.3143 410.553 99.7731C407.617 101.333 405.323 101.792 400.093 102.067C393.303 102.342 392.568 103.076 394.22 107.848C395.505 111.426 395.413 111.61 393.394 112.527C390.825 113.629 390.55 115.831 392.66 117.024C395.046 118.4 393.394 121.153 388.439 124.089C383.943 126.842 382.934 128.402 384.861 129.686C385.503 130.053 384.494 131.338 382.475 132.99C380.548 134.641 379.355 136.293 379.631 137.027C379.906 137.761 379.722 138.312 379.264 138.312C378.805 138.312 378.346 139.229 378.162 140.33C377.979 142.074 377.428 142.441 374.767 142.165C372.198 141.982 371.831 142.165 372.382 143.542C372.749 144.459 373.391 146.57 373.758 148.313C374.217 150.057 374.951 151.708 375.41 151.983C377.061 153.176 377.153 155.47 375.501 157.672C374.584 158.865 373.758 160.333 373.758 160.884C373.758 162.26 369.721 165.839 368.161 165.839C367.243 165.839 366.784 166.848 366.784 169.05C366.784 171.344 366.234 172.721 364.766 173.638C363.756 174.464 362.197 175.657 361.462 176.483C360.27 177.584 359.719 177.584 358.159 176.666C356.691 175.749 355.957 175.749 354.672 176.666C351.186 179.144 349.259 179.511 345.68 178.226C343.661 177.492 340.358 176.942 338.339 176.85C334.761 176.85 334.486 177.033 333.935 179.694C333.017 184.191 327.879 191.531 325.218 192.082C323.933 192.357 321.456 193.183 319.804 193.917C315.95 195.569 310.261 196.945 304.939 197.587C302.645 197.771 299.893 198.23 298.792 198.413C297.232 198.78 296.681 198.505 296.498 197.312C296.498 196.394 296.314 195.202 296.314 194.559C296.222 194.009 295.213 192.449 294.112 191.256C292.919 190.063 292.093 188.687 292.277 188.228C292.369 187.769 291.726 186.301 290.809 184.925C289.891 183.548 288.974 180.796 288.698 178.869C288.331 176.391 287.047 174.097 284.202 171.069C282 168.683 280.165 166.114 280.165 165.288C280.165 164.554 279.431 163.637 278.605 163.361C275.577 162.169 273.925 159.875 273.283 155.746C272.916 153.452 271.907 150.057 270.897 148.13C269.888 146.203 269.337 144.276 269.613 143.817C269.888 143.358 269.337 142.165 268.236 141.064C267.227 140.055 266.401 138.495 266.401 137.577C266.401 136.66 265.208 134.733 263.648 133.448C262.18 132.072 259.794 129.319 258.418 127.209C256.399 124.089 256.124 123.171 257.042 121.703C257.959 120.235 257.868 118.767 256.675 114.179C255.849 111.059 255.115 107.94 255.115 107.297C255.115 106.747 254.84 106.196 254.564 106.196C253.738 106.196 251.903 101.608 250.894 96.9286C250.068 93.1665 250.252 88.5786 251.353 86.8352C251.536 86.4682 250.71 83.9907 249.426 81.238C248.141 78.577 247.132 75.7325 247.132 74.9067C247.132 74.0808 246.306 72.7045 245.297 71.7869C244.287 70.8693 243.462 69.3094 243.462 68.3918C243.462 67.3825 243.003 65.7309 242.36 64.6298C240.801 61.7853 240.801 59.6748 242.177 55.0869C242.911 52.7012 243.278 48.1133 243.094 44.1677C242.819 38.8457 243.094 37.1024 244.012 36.7353C245.572 36.1848 245.664 34.3496 244.196 30.3123C243.186 27.6513 243.278 27.1007 245.205 25.082C248.416 21.687 247.407 16.8238 241.81 7.73978C237.13 0.123871 235.754 -1.2525 234.928 0.949677ZM240.158 7.09747C242.452 9.94199 246.214 18.0167 246.214 20.0353C246.214 21.2282 245.388 23.2469 244.379 24.5315C242.452 27.0089 241.993 30.4958 243.462 31.4133C244.838 32.3309 244.563 35.2672 243.003 35.9095C241.81 36.3683 241.626 37.6529 241.993 43.5254C242.36 48.6638 242.085 52.0589 240.984 55.5457C239.608 60.1336 239.608 60.6842 241.259 65.6391C242.177 68.4836 243.553 71.3281 244.287 71.8787C245.021 72.4292 245.755 73.8056 245.939 74.9984C246.122 76.1913 247.04 78.944 248.049 81.1462C249.426 84.3578 249.701 86.3764 249.242 90.5973C248.783 95.3687 249.151 97.1121 252.362 105.921C256.766 117.666 257.592 120.877 256.308 120.877C254.931 120.877 255.207 125.19 256.766 126.75C257.5 127.484 258.143 128.31 258.143 128.677C258.143 129.962 262.272 134.641 263.373 134.641C264.015 134.641 264.566 134.916 264.658 135.283C264.933 138.128 265.575 139.78 266.768 140.697C267.594 141.248 268.236 142.532 268.236 143.45C268.236 144.459 269.062 146.845 269.98 148.68C270.989 150.607 271.998 154.186 272.365 156.663C272.916 160.517 273.466 161.526 276.219 163.178C278.054 164.279 279.155 165.655 278.88 166.389C278.605 167.032 279.247 167.858 280.257 168.133C281.174 168.5 282 169.234 282 169.968C282 170.61 282.917 171.987 284.11 172.904C285.395 173.914 286.68 176.483 287.505 179.878C288.148 182.722 289.249 185.567 289.983 186.117C290.625 186.668 291.176 187.861 291.176 188.778C291.176 189.604 292.002 191.072 292.919 191.898C293.837 192.816 294.938 194.926 295.213 196.67C295.855 199.698 295.947 199.789 299.25 199.331C301.086 199.055 304.297 198.688 306.316 198.505C310.078 198.138 315.767 196.578 323.475 193.825C326.778 192.632 328.613 191.164 331.091 187.769C332.834 185.383 334.486 182.264 334.853 181.071C335.128 179.786 336.229 178.502 337.147 178.226C339.44 177.492 346.047 178.502 346.781 179.694C347.515 180.887 352.654 179.786 354.672 178.043C355.865 177.033 356.599 176.942 358.159 177.767C359.811 178.593 360.637 178.318 363.573 176.024C366.784 173.455 369.078 169.142 367.885 167.858C367.61 167.674 368.62 166.757 370.179 165.931C371.739 165.105 373.942 162.811 375.043 160.792C376.052 158.774 377.337 156.847 377.887 156.48C378.438 156.021 378.254 154.736 377.153 152.809C376.327 151.158 375.226 148.405 374.767 146.753C373.942 144.001 374.033 143.817 376.144 143.817C377.52 143.817 378.621 143.175 378.897 142.165C380.456 137.486 382.383 134.549 384.953 132.714C387.43 130.879 387.614 130.512 386.237 129.594C384.402 128.218 384.31 127.301 386.054 127.301C386.696 127.301 387.797 126.658 388.439 125.924C389.082 125.19 389.907 124.731 390.275 125.007C390.642 125.282 391.192 124.823 391.559 124.089C391.834 123.355 392.66 122.713 393.486 122.713C395.321 122.713 395.321 117.758 393.394 115.923C392.11 114.638 392.201 114.363 394.312 113.353C396.789 112.344 397.432 110.417 395.78 109.408C395.321 109.132 394.862 107.848 394.862 106.655C394.862 104.82 395.505 104.269 398.624 103.443C401.652 102.618 402.662 102.618 403.212 103.535C403.763 104.453 404.222 104.453 405.415 103.443C407.525 101.7 413.122 99.7731 413.673 100.691C414.59 102.159 419.821 102.434 422.849 101.241C425.785 99.9566 440.833 85.6424 442.577 82.4308C443.035 81.5132 443.494 77.1089 443.678 72.521L443.953 64.171L447.807 61.7853C450.009 60.5007 456.249 57.3809 461.662 54.8116C467.076 52.2424 473.04 49.1227 474.875 47.7463C477.353 46.0946 479.922 45.2688 484.143 44.9935C489.649 44.5348 490.107 44.6265 493.227 47.3792C496.897 50.499 497.723 53.6188 499.467 70.3188C500.66 80.8709 499.742 84.7248 495.888 85.5506C494.42 85.8259 492.126 87.294 490.75 88.7621C489.281 90.322 487.63 91.5149 486.988 91.5149C484.877 91.5149 482.95 95.4605 482.95 99.6814C482.95 102.342 482.216 105.095 480.656 107.573C479.096 110.234 478.362 113.262 477.995 117.574C477.812 121.428 477.078 124.364 476.16 125.374C474.325 127.392 474.325 129.136 476.068 131.613C477.628 133.815 477.169 135.926 474.508 138.954C471.939 141.707 472.765 144.092 476.527 145.285C479.463 146.294 479.739 146.661 479.463 149.322C479.28 150.974 479.739 154.002 480.473 156.113C481.207 158.223 482.308 161.618 482.95 163.729C483.592 165.839 485.152 168.5 486.253 169.601C488.914 172.078 489.281 178.135 486.896 180.704C485.152 182.631 483.225 185.842 482.4 188.044C482.033 189.054 480.84 189.696 479.555 189.696C478.087 189.696 477.078 190.338 476.802 191.531C476.527 192.541 475.885 193.366 475.426 193.366C474.967 193.366 473.499 194.559 472.215 196.119C471.022 197.587 469.37 198.872 468.636 198.872C466.709 198.872 467.076 200.432 469.462 202.083C470.838 203.184 471.113 203.827 470.288 204.102C467.718 205.111 463.865 209.057 462.763 211.902C462.213 213.553 461.204 215.847 460.653 217.04C459.827 218.692 459.919 220.16 461.02 223.188C462.396 226.95 462.396 227.225 460.745 227.592C459.827 227.867 459.093 228.877 459.093 229.886C459.093 230.895 458.451 231.997 457.625 232.272C456.524 232.639 456.34 233.465 456.707 235.116C457.625 238.878 453.496 243.466 448.541 244.2C448.082 244.2 447.623 245.21 447.623 246.311C447.623 247.412 447.256 248.605 446.889 248.972C446.522 249.339 446.522 251.174 446.798 253.101C447.348 256.221 447.165 256.771 445.238 257.505C443.402 258.148 443.035 258.973 443.035 261.818C443.035 264.938 443.311 265.396 445.054 265.396C446.247 265.396 447.073 265.672 447.073 266.039C446.889 268.241 445.88 270.443 445.146 270.443C444.687 270.443 444.504 271.544 444.595 272.829C444.962 276.407 442.944 276.591 440.099 273.288C437.346 270.168 435.511 269.709 434.685 271.82C434.043 273.471 426.794 276.958 422.206 277.784C418.995 278.426 418.628 278.243 418.169 276.316C417.894 275.123 417.068 274.022 416.334 274.022C414.866 273.838 414.223 273.655 412.296 273.012C405.598 270.443 404.772 270.443 401.928 272.829C399.359 274.939 398.716 275.123 393.119 274.481C386.237 273.838 383.668 272.645 376.603 267.323C372.29 264.112 370.822 263.47 365.775 263.103C360.453 262.644 358.71 263.103 360.82 264.387C361.279 264.662 361.921 266.039 362.197 267.415C362.564 268.883 363.481 271.361 364.399 273.012C367.243 278.518 363.114 281.087 352.929 280.078C348.341 279.619 346.689 279.802 344.395 281.087C341.367 282.922 340.817 285.491 343.203 286.868C344.762 287.694 344.671 287.877 342.652 290.079C341 291.915 339.899 292.282 337.789 291.823C335.587 291.364 335.036 291.639 334.577 293.291C334.302 294.3 333.751 295.218 333.384 295.218C332.926 295.218 332.375 296.411 332.008 297.879C331.458 300.448 331.274 300.54 328.705 299.622C327.145 299.072 323.933 298.888 321.456 299.072C317.694 299.439 316.776 299.255 316.409 297.971C316.134 297.053 314.941 296.044 313.748 295.768C312.555 295.493 310.904 294.943 310.078 294.667C308.977 294.209 308.61 295.218 308.426 300.448L308.151 306.688L304.389 306.963C302.003 307.146 299.893 307.972 298.975 309.073C298.058 309.991 296.865 310.817 296.222 310.817C294.938 310.817 293.011 314.671 293.011 317.24C293.011 318.157 292.552 319.258 292.002 319.626C291.451 319.901 291.176 321.185 291.451 322.378C291.635 323.571 291.359 324.672 290.809 324.856C290.258 325.039 289.708 328.343 289.616 332.38C289.341 338.803 288.974 339.996 286.863 342.198C285.487 343.574 284.202 344.584 284.019 344.308C283.743 344.033 283.009 344.308 282.367 344.767C281.816 345.318 280.899 345.685 280.532 345.501C280.073 345.41 278.788 345.777 277.596 346.419C276.311 347.153 274.109 347.428 271.631 347.061C267.135 346.327 265.483 347.612 263.74 353.025C263.006 355.228 261.263 357.246 257.959 359.449C255.39 361.192 251.995 364.22 250.435 366.147C247.866 369.358 247.774 369.817 248.783 372.478C249.701 374.864 249.609 375.781 248.508 377.341C247.682 378.351 245.847 381.103 244.379 383.397C241.535 387.802 237.222 390.646 236.671 388.536C235.387 384.407 235.203 384.131 233.368 384.682C232.359 385.049 231.533 384.865 231.533 384.315C231.533 383.673 230.799 383.673 229.055 384.315C226.211 385.416 224.192 384.865 224.192 382.939C224.192 381.195 220.889 379.268 219.146 380.002C218.412 380.278 217.586 380.094 217.219 379.544C216.943 378.993 216.118 378.809 215.567 378.993C214.925 379.268 213.915 378.626 213.365 377.708C212.539 376.424 211.346 375.965 209.144 376.148C206.667 376.332 205.474 375.69 202.904 372.937C199.601 369.542 195.38 368.349 194.646 370.643C194.371 371.469 193.545 371.377 191.71 370.184C189.141 368.441 187.489 368.808 187.489 370.918C187.489 373.946 185.746 376.699 184.094 376.332C182.075 375.781 179.139 367.615 180.24 365.688C180.699 364.954 180.424 363.302 179.69 361.834C178.956 360.55 178.589 358.898 178.772 358.256C179.047 357.613 178.589 356.329 177.854 355.411C176.662 353.851 176.203 353.76 174.368 354.769C172.9 355.595 171.615 355.595 169.78 354.952C167.761 354.127 167.211 354.31 166.476 355.686C164.825 358.714 160.512 359.816 153.63 358.806L147.299 357.98L149.501 360.917C151.428 363.394 151.52 363.945 150.327 364.954C149.593 365.596 149.134 366.33 149.318 366.697C151.061 369.542 137.481 373.304 134.912 370.643C133.719 369.542 133.26 369.634 131.608 371.01C130.599 371.928 129.681 373.12 129.681 373.671C129.681 374.864 125.277 376.883 122.616 376.883C121.423 376.883 119.588 377.8 118.487 378.901C117.386 380.002 115.826 381.012 115.184 381.103C112.614 381.562 111.33 382.388 111.33 383.764C111.33 384.498 110.779 385.141 110.045 385.141C109.403 385.141 108.302 385.783 107.66 386.517C106.834 387.526 106.191 387.71 105.457 386.976C104.999 386.517 103.53 386.058 102.338 386.058C99.493 386.058 94.0793 380.278 93.3453 376.332C92.9782 374.222 92.2442 373.212 90.8678 373.029C89.7667 372.845 88.2986 371.561 87.6562 370.184C86.7387 368.257 86.0964 367.798 85.3623 368.533C83.2519 370.643 82.059 368.9 81.4167 363.119C81.1414 361.375 80.2238 359.265 79.2145 358.347C78.2052 357.522 77.3793 356.237 77.3793 355.411C77.3793 354.585 77.0123 353.943 76.4618 353.943C76.003 353.943 75.5442 351.924 75.5442 349.539C75.5442 347.061 75.2689 344.767 74.9936 344.492C74.6266 344.125 74.2596 339.537 74.1678 334.307C73.9843 324.122 74.5348 322.929 78.3887 324.122C79.4898 324.489 80.1321 324.03 80.5909 322.745C81.0497 321.369 81.692 321.002 82.9766 321.369C84.0777 321.736 84.9035 321.461 85.2705 320.543C85.6376 319.626 86.9222 319.075 88.7573 319.075C90.409 319.075 91.9689 318.891 92.1524 318.616C92.6112 318.249 91.7854 311.092 90.5925 304.302C90.3172 302.375 90.5007 300.081 91.1431 298.888C91.9689 297.328 91.8771 296.502 90.5925 294.484C89.7667 293.107 88.4821 291.639 87.748 291.272C87.1057 290.905 86.5552 289.804 86.5552 288.978C86.5552 288.152 85.5458 285.675 84.353 283.565C83.0683 281.454 81.8755 278.701 81.5085 277.6C81.1414 276.407 79.8568 274.022 78.664 272.187C77.4711 270.443 76.2782 267.14 76.003 264.938C75.8195 262.46 74.7184 259.799 73.0667 257.689C71.5986 255.854 69.9469 253.284 69.3046 251.816C68.7541 250.44 67.9283 249.339 67.5612 249.431C65.4508 249.614 61.3217 252.917 60.8629 254.753C60.4041 256.771 60.3123 256.679 57.5596 253.743C54.1645 250.165 50.7695 243.742 50.4025 240.347C50.1272 237.502 52.1459 234.658 54.4398 234.658C57.009 234.658 60.6794 231.171 61.3217 228.234C61.7805 226.124 62.4228 225.482 64.1662 225.482C65.6343 225.482 66.3684 224.931 66.3684 223.922C66.3684 223.096 67.0107 221.72 67.7447 220.894C69.3964 219.059 69.8552 212.085 68.387 210.617C66.8272 209.057 67.0107 207.314 69.2129 204.561C70.681 202.726 70.9563 201.441 70.4975 198.688C70.0387 196.394 70.2222 195.202 70.8645 195.202C71.4151 195.202 71.8739 194.559 71.8739 193.825C71.8739 193.091 72.8832 191.531 74.1678 190.43C75.4524 189.329 76.4618 187.861 76.4618 187.219C76.4618 186.485 77.6546 184.741 79.2145 183.273C80.6826 181.805 81.9672 179.786 81.9672 178.685C81.9672 177.676 82.5178 176.85 83.2519 176.85C83.9859 176.85 84.8117 175.841 85.087 174.556C85.8211 171.711 87.4727 171.528 87.4727 174.372C87.4727 175.565 88.115 177.309 88.8491 178.318C89.5832 179.236 90.2255 180.796 90.2255 181.621C90.2255 182.539 91.5101 183.824 93.2535 184.558C94.9051 185.2 97.0156 186.852 97.8414 188.228C98.759 189.513 99.8601 190.614 100.319 190.614C102.154 190.614 104.723 183.732 104.632 178.96C104.54 175.749 105.09 173.638 106.008 172.537C108.302 169.968 106.65 161.802 103.072 158.04C101.603 156.48 100.319 154.644 100.319 154.002C100.319 150.791 92.1524 146.478 81.9672 144.368C80.6826 144.092 77.6546 142.257 75.2689 140.238C72.8832 138.22 70.314 136.752 69.5799 137.027C68.9376 137.302 67.2859 136.843 65.9096 135.926C64.625 135.1 63.3404 134.641 63.0651 134.916C62.698 135.192 60.5876 133.632 58.2937 131.43C55.9997 129.136 53.7975 127.301 53.4305 127.301C53.0634 127.301 52.6047 126.566 52.4211 125.649C52.1459 124.731 50.4025 123.538 48.292 122.896C46.1816 122.254 44.0711 121.153 43.4288 120.419C42.7865 119.685 41.6854 119.042 41.0431 119.042C40.3091 119.042 39.7585 118.216 39.7585 117.299C39.7585 116.29 38.9327 115.188 37.9234 114.913C36.914 114.638 35.8129 113.262 35.5376 111.885C34.8036 108.949 31.592 105.095 30.4909 105.829C29.3898 106.471 28.0135 102.618 27.6464 98.2132C27.4629 96.1945 26.7289 94.1759 25.7195 93.5336C24.8019 92.7995 23.4256 90.6891 22.6915 88.7621C21.8657 86.8352 20.6728 85.0001 19.9388 84.7248C19.2047 84.4495 18.6542 83.4402 18.6542 82.5226C18.6542 81.5132 17.7366 79.5863 16.6355 78.1182C14.8003 75.916 12.4146 68.3918 12.0476 63.9875C11.9558 61.7853 10.3042 60.3171 8.10197 60.3171C6.2668 60.3171 6.08329 59.9501 6.17505 54.3529C6.2668 49.6732 5.89977 48.2051 4.61516 47.2875C3.69758 46.6452 2.87175 44.81 2.78 43.3419C2.59648 41.2314 3.05527 40.2221 4.98219 39.0293C6.35856 38.2034 7.91845 36.0013 8.56076 34.2578C9.75361 30.5875 10.763 30.3123 17.7366 32.1474C21.4069 33.1567 22.3245 33.065 25.9948 31.3216C28.3805 30.2205 30.7662 28.6606 31.4085 27.8348C33.3354 25.5408 34.1613 26.0914 33.0602 29.1194C32.5096 30.5875 32.2343 31.9639 32.5096 32.2392C32.7849 32.5144 35.1706 32.8815 37.9234 33.1567C40.6761 33.3403 43.1536 33.5238 43.3371 33.6155C43.5206 33.7073 42.97 34.8084 42.0525 36.093C40.4926 38.4787 40.4926 38.5705 43.0618 40.6809C44.5299 41.8738 46.3651 43.4337 47.1909 44.2595C48.7508 45.7276 51.6871 46.0946 51.6871 44.81C51.6871 43.0666 55.7244 43.0666 57.9266 44.81C60.6794 46.9205 63.3404 47.0122 65.5425 45.0853C67.0107 43.8007 67.1942 43.8007 67.7447 45.5441C68.6623 48.3886 72.975 49.0309 77.6546 47.0122C78.4804 46.6452 79.8568 46.5534 80.5909 46.9205C82.2425 47.471 84.72 45.2688 86.2799 41.8738C87.0139 40.1304 88.2986 39.3045 90.776 38.8457C92.8865 38.387 94.3546 38.5705 94.8134 39.121C95.4557 40.2221 98.1167 40.4056 103.806 39.7633C106.558 39.3963 108.485 39.6716 109.953 40.6809C111.605 41.782 112.523 41.8738 113.991 41.1397C115 40.5891 117.202 40.1304 119.038 40.1304C120.781 40.1304 122.433 39.7633 122.708 39.3045C122.983 38.8457 126.103 38.2034 129.498 37.8364C132.985 37.4694 136.288 36.9188 136.93 36.5518C137.664 36.093 138.857 36.5518 140.05 37.7447C141.151 38.8457 143.262 40.5891 144.822 41.6902C146.748 43.0666 147.483 44.2595 147.299 46.0029C146.932 51.0496 152.437 50.2238 154.456 44.9935C155.19 43.0666 155.741 41.3232 155.833 41.0479C156.2 38.9375 159.595 30.037 160.696 28.3853C161.43 27.1925 163.265 25.6326 164.733 24.8985C166.201 24.1645 168.22 22.6963 169.321 21.5952C171.064 19.8518 171.34 19.8518 172.074 21.2282C172.533 22.054 173.634 22.6963 174.551 22.6963C176.295 22.6963 177.12 24.715 177.946 30.8628C178.13 32.698 178.772 34.5331 179.231 34.9919C179.781 35.5424 179.69 36.4601 179.139 37.4694C178.313 39.2128 179.047 41.415 181.8 44.81C182.442 45.6358 182.901 46.9205 182.718 47.5628C182.534 48.3886 183.176 48.7556 184.461 48.5721C186.021 48.3886 186.296 48.6638 185.929 50.2238C185.654 51.2331 185.837 52.0589 186.388 52.0589C187.581 52.0589 188.59 55.4539 188.59 59.3078C188.59 61.143 189.324 63.5287 190.425 64.8133L192.26 67.199L190.334 67.4743C188.04 67.8413 187.764 69.0341 189.875 69.86C190.609 70.1353 190.976 70.8693 190.609 71.4199C190.242 72.0622 190.517 72.9798 191.251 73.5303C193.27 75.1819 195.105 78.8523 194.187 79.4946C193.086 80.2286 192.903 83.9907 193.912 84.633C194.371 84.9083 194.554 85.7341 194.279 86.3764C193.545 88.3951 195.38 88.8539 198.133 87.3858C199.601 86.6517 200.427 86.0094 199.968 86.0094C199.509 86.0094 199.876 85.1836 200.794 84.1743C201.712 83.1649 203.363 82.3391 204.556 82.3391C206.667 82.3391 209.052 79.4946 207.951 78.3017C207.676 78.0265 207.768 77.7512 208.318 77.7512C209.419 77.7512 211.346 73.7138 211.346 71.2364C211.346 68.5754 213.915 63.9875 215.475 63.9875C217.586 63.9875 218.962 60.5924 217.31 59.6748C216.576 59.216 215.842 57.1974 215.659 54.9952C215.384 52.8847 214.741 50.5908 214.099 49.765C213.273 48.8474 213.273 47.7463 213.915 45.8194C214.374 44.443 214.649 40.0386 214.466 36.0013C214.282 31.9639 214.466 27.8348 214.925 26.8254C217.219 21.5035 217.769 19.5765 217.769 16.8238C217.769 15.0804 217.127 13.2453 216.393 12.603C214.558 11.1348 214.649 10.1255 216.852 7.83154C218.779 5.81287 225.385 4.98703 227.587 6.45517C228.78 7.28098 234.102 4.16122 235.479 1.77551C236.121 0.766174 236.58 1.13321 237.681 3.15189C238.415 4.52826 239.516 6.3634 240.158 7.09747Z"/>
</mask>
<path d="M234.928 0.949677C234.377 2.50958 227.863 6.45517 227.863 5.2623C227.863 4.80353 225.569 4.52826 222.632 4.80353C218.32 5.0788 217.127 5.62933 215.384 7.73978C213.365 10.309 213.365 10.309 215.108 13.1535C216.943 16.1815 217.402 19.8518 216.118 21.3199C214.466 23.2469 212.998 29.9452 213.365 33.3403C213.64 35.3589 213.457 39.5798 212.998 42.7914C212.539 46.6452 212.539 49.0309 213.181 49.6732C213.64 50.132 214.099 52.3342 214.099 54.4446C214.099 56.7386 214.649 58.9408 215.475 59.7666C217.31 61.51 217.219 62.1523 215.108 62.1523C213.181 62.1523 210.796 66.4649 209.878 71.5116C209.511 73.1633 208.777 75.1819 208.135 75.916C207.492 76.6501 206.758 78.1182 206.575 79.1276C206.391 80.5039 205.565 80.9627 203.547 80.9627C201.712 81.0545 200.702 81.5132 200.519 82.6143C200.335 83.4402 199.785 83.899 199.326 83.6237C198.775 83.3484 198.133 83.899 197.858 85.0001C197.582 86.1012 197.032 86.927 196.665 86.927C195.472 86.927 194.921 83.1649 195.747 80.9627C196.298 79.4028 196.206 78.4852 195.197 77.7512C194.554 77.1089 193.912 76.0995 193.912 75.4572C193.912 74.8149 193.27 73.8056 192.536 73.1633C191.526 72.3375 191.435 71.6034 192.077 70.4105C193.453 67.8413 193.178 66.0061 191.251 64.0792C189.967 62.7946 189.6 61.4182 189.875 58.5737C190.058 56.5551 189.875 54.8116 189.416 54.8116C188.498 54.8116 187.214 51.3249 187.397 49.4897C187.489 48.8474 186.847 48.1133 185.929 47.7463C183.727 46.9205 181.158 43.7089 181.066 41.6902C181.066 40.8644 180.607 40.1304 180.057 40.1304C179.414 40.1304 179.598 39.3045 180.424 37.9282C181.8 35.9095 181.8 35.5424 180.515 34.5331C179.781 33.8908 179.231 32.5144 179.323 31.5051C179.414 30.404 179.139 28.8441 178.772 27.9265C178.405 27.0089 178.038 25.3573 177.946 24.2562C177.854 23.0634 177.12 22.1458 176.019 21.9622C175.01 21.7787 173.45 20.9529 172.624 20.2188C171.156 18.9342 170.697 19.1178 167.394 21.687C165.467 23.2469 163.448 24.5315 162.898 24.5315C161.613 24.5315 157.301 32.0557 156.658 35.5424C156.291 37.1024 155.649 38.5705 155.282 38.8457C154.823 39.121 154.456 40.0386 154.456 40.9562C154.456 43.3419 152.346 47.471 151.061 47.471C150.419 47.471 149.593 47.471 149.226 47.471C148.767 47.471 148.492 46.7369 148.4 45.8194C148.308 43.3419 147.024 41.0479 145.739 41.0479C145.097 41.0479 143.262 39.5798 141.61 37.7447C139.041 34.8084 138.49 34.5331 136.288 35.3589C134.912 35.9095 131.333 36.5518 128.397 36.8271C125.369 37.1024 122.708 37.7447 122.341 38.2034C122.066 38.754 120.322 38.9375 118.395 38.754C116.56 38.6622 115 38.8457 115 39.2128C115 40.7727 111.33 40.7727 108.944 39.121C107.568 38.2034 106.008 37.7447 105.549 38.0199C105.182 38.2952 102.705 38.5705 100.227 38.754C96.9238 38.9375 95.5474 38.6622 94.9051 37.6529C94.3546 36.6436 93.6205 36.4601 91.9689 37.0106C90.776 37.4694 89.1244 37.8364 88.3903 37.8364C87.6562 37.8364 86.4634 39.0293 85.6376 40.4974C83.4354 44.7183 81.5085 46.3699 79.9486 45.5441C79.031 45.0853 77.4711 45.2688 75.6359 46.1864C72.6079 47.7463 69.1211 47.1957 69.1211 45.1771C69.1211 43.1584 66.2766 42.6996 64.3497 44.443C62.6063 46.0029 62.4228 46.0029 59.0277 43.9842C54.7151 41.5067 52.0541 41.415 50.8612 43.5254C50.0354 45.0853 49.7601 44.9935 47.6497 42.6996C46.3651 41.3232 44.6217 39.8551 43.8876 39.3963C42.603 38.754 42.603 38.2034 43.5206 36.093C44.5299 33.9826 44.4382 33.432 43.3371 32.698C42.603 32.2392 41.5937 32.0557 40.9514 32.3309C40.3091 32.5144 39.575 32.3309 39.208 31.7804C38.9327 31.2298 37.4646 31.1381 35.9964 31.4133C33.0602 32.0557 32.8767 31.7804 34.3448 29.0276C34.8953 27.9265 35.0788 26.5502 34.8036 25.8161C34.4365 24.8068 33.2437 25.2656 29.8486 27.743C24.2514 31.7804 21.2234 32.3309 15.5344 30.5875C13.0569 29.8535 10.6712 29.3947 10.2124 29.67C9.75361 29.9452 8.74427 31.6886 7.82669 33.5238C7.00087 35.2672 5.07395 37.4694 3.51406 38.2952C1.31187 39.5798 0.853075 40.3139 1.03659 42.5161C1.22011 43.9842 1.86241 45.8194 2.41296 46.5534C4.98219 49.8567 5.6245 51.9672 5.16571 56.0045C4.70692 60.0419 4.79867 60.2254 7.82669 61.51C9.66185 62.244 10.9465 63.5287 11.0382 64.538C11.497 69.6765 13.8827 77.1089 15.2591 77.8429C16.0849 78.3935 16.819 79.7699 16.819 81.0545C16.819 82.2473 17.8283 84.1743 19.1129 85.2753C20.3976 86.3764 21.4069 87.9363 21.4069 88.8539C21.4069 89.7715 22.4162 91.6067 23.6091 93.0748C24.8019 94.5429 26.0866 97.2039 26.3618 99.0391C27.0959 103.902 28.8393 107.114 30.5827 107.114C31.592 107.114 32.7849 108.674 33.7942 111.151C34.8036 113.445 36.2717 115.464 37.281 115.739C38.4739 116.014 38.8409 116.657 38.4739 117.849C37.9234 119.501 40.9514 121.336 49.2096 124.456C50.586 125.007 51.6871 126.016 51.6871 126.842C51.6871 127.576 52.0541 128.218 52.5129 128.218C52.9717 128.218 55.1739 129.962 57.3761 132.164C61.2299 135.834 66.5519 138.312 70.7728 138.312C71.7821 138.312 73.4337 139.229 74.3513 140.422C76.4618 143.083 80.4991 145.652 82.6096 145.652C87.2892 145.744 98.4837 151.158 98.4837 153.36C98.4837 153.91 99.7683 155.837 101.328 157.489C102.888 159.232 104.54 161.618 104.999 162.811C106.1 165.839 106.008 170.794 104.815 171.987C104.173 172.629 103.714 175.474 103.622 178.41C103.439 183.273 101.695 188.778 100.411 188.778C100.135 188.778 98.8507 187.677 97.5661 186.393C96.3733 185.108 94.5381 183.64 93.437 183.273C91.8771 182.631 90.2255 179.419 88.0233 172.904C87.2892 170.61 84.8117 170.977 84.1694 173.638C83.8942 174.923 83.0683 175.932 82.3343 175.932C81.6002 175.932 81.0497 176.85 81.0497 177.859C81.0497 178.96 80.0403 180.796 78.7557 181.988C77.5629 183.089 76.2782 185.108 75.9112 186.393C75.6359 187.769 74.5348 189.237 73.6173 189.696C71.1398 191.072 68.8458 196.578 69.4881 199.422C69.9469 201.166 69.4881 202.45 67.7447 204.469C65.0838 207.772 64.992 208.048 66.8272 210.433C68.387 212.452 68.6623 218.692 67.1942 219.517C66.7354 219.884 65.9096 221.169 65.4508 222.362C64.9002 223.647 63.7991 224.564 62.698 224.564C61.6887 224.564 60.8629 225.206 60.8629 225.94C60.8629 226.675 60.4958 227.317 59.9453 227.317C59.4865 227.317 59.0277 228.326 59.0277 229.519C59.0277 231.538 57.3761 232.822 54.4398 233.281C52.2376 233.556 48.9343 237.043 48.9343 238.97C48.9343 241.631 53.981 253.009 55.1739 253.009C55.6327 253.009 57.2843 254.936 59.0277 257.23C62.2393 261.726 64.625 261.726 62.6063 257.23C61.3217 254.477 62.331 252.826 66.0931 251.725C67.7447 251.174 68.2953 251.541 68.7541 253.376C69.0294 254.569 70.0387 256.312 71.048 257.23C71.9656 258.056 72.7914 259.34 72.7914 260.074C72.7914 260.717 73.1585 261.267 73.6173 261.267C73.9843 261.267 74.6266 263.011 74.8101 265.121C75.0854 267.323 76.37 270.718 77.7464 272.645C79.031 274.572 80.1321 276.774 80.1321 277.509C80.1321 278.151 81.1414 280.353 82.426 282.28C83.6189 284.299 84.9035 287.051 85.2705 288.52C85.6376 289.896 86.9222 292.006 88.115 293.107C90.2255 295.126 90.9595 299.255 89.3079 300.265C88.2068 300.907 88.6656 305.128 90.042 307.789C91.4183 310.266 91.5101 318.524 90.2255 317.699C89.7667 317.423 87.9315 317.79 86.1881 318.616C84.4447 319.442 82.6096 319.901 82.059 319.626C81.6002 319.258 80.6826 319.901 80.1321 320.91C79.5815 321.919 78.2052 322.745 77.1041 322.745C73.1585 322.745 72.8832 323.663 72.975 334.49C73.0667 340.179 73.4337 345.042 73.8008 345.318C74.1678 345.501 74.4431 347.428 74.4431 349.447C74.4431 351.466 74.9019 353.668 75.4524 354.218C76.003 354.769 76.4618 355.87 76.4618 356.696C76.4618 357.43 77.2876 358.623 78.2969 359.265C79.5815 359.999 80.1321 361.375 80.1321 363.486C80.1321 365.229 80.4991 366.881 81.0497 367.248C81.5085 367.523 81.692 368.349 81.3249 369.083C80.8661 370.459 81.7837 370.827 84.9035 370.551C85.7293 370.459 86.6469 371.194 87.0139 372.295C87.381 373.396 88.3903 374.13 89.7667 374.13C91.8771 374.13 92.9782 376.148 92.9782 380.278C92.9782 381.562 93.5288 382.388 94.3546 382.388C95.0887 382.388 96.3733 383.397 97.1991 384.682C98.3002 386.334 99.493 386.976 101.603 386.976C103.255 386.976 105.09 387.526 105.733 388.077C106.65 389.086 107.109 388.995 108.027 387.618C108.669 386.792 109.953 386.058 110.779 386.058C111.605 386.058 112.247 385.324 112.247 384.223C112.247 382.847 112.89 382.388 114.908 382.388C116.744 382.388 118.028 381.654 119.038 380.094C120.047 378.534 121.423 377.8 123.258 377.8C126.011 377.8 131.975 374.864 131.058 373.946C130.783 373.671 131.15 372.937 131.975 372.295C133.168 371.285 133.719 371.377 135.37 372.845C136.655 374.038 137.389 374.222 137.664 373.487C137.848 372.845 138.674 372.662 139.316 372.845C140.05 373.12 141.151 373.029 141.794 372.57C142.436 372.203 143.629 371.836 144.363 371.744C145.097 371.652 146.657 371.561 147.85 371.469C148.951 371.469 149.868 370.827 149.868 370.184C149.868 369.634 150.511 367.89 151.245 366.514C152.254 364.495 152.346 363.394 151.612 362.018C150.327 359.54 151.061 359.081 154.364 360.183C157.759 361.375 163.081 360.274 165.742 357.797C167.211 356.512 168.587 356.145 170.789 356.42C172.441 356.696 174.276 356.42 175.01 355.87C176.019 355.044 176.57 355.686 177.763 359.54C178.68 362.109 179.139 364.77 178.864 365.413C178.68 366.055 179.231 368.991 180.148 371.928C181.617 376.883 181.984 377.341 184.369 377.341C186.663 377.341 187.03 376.883 187.856 373.396L188.865 369.542L192.26 371.836C196.298 374.589 196.665 374.589 196.665 372.478C196.665 371.561 197.307 370.735 198.041 370.735C198.775 370.735 199.418 371.285 199.418 372.019C199.418 372.662 199.785 373.212 200.243 373.212C200.702 373.212 202.354 374.222 203.914 375.506C205.841 377.25 207.309 377.708 208.869 377.341C210.52 376.883 211.53 377.25 212.356 378.534C213.09 379.452 214.282 380.369 215.016 380.461C220.155 381.012 221.99 381.287 222.541 381.379C222.908 381.379 222.999 382.021 222.724 382.755C222.449 383.397 223.366 384.682 224.651 385.508C226.578 386.792 227.312 386.884 228.413 385.967C229.423 385.141 229.973 385.141 231.074 386.058C231.808 386.609 232.818 386.884 233.368 386.517C233.827 386.242 234.744 387.068 235.203 388.352C236.029 390.463 236.488 390.738 238.69 390.187C240.066 389.82 241.351 389.27 241.626 388.995C241.902 388.628 243.278 386.609 244.654 384.407C246.031 382.296 248.049 379.635 249.059 378.626C250.894 376.791 250.986 375.231 249.334 371.102C248.783 369.634 255.757 362.109 261.63 357.797C263.19 356.696 264.658 354.585 265.025 353.025C265.85 349.172 268.695 347.428 273.008 348.071C274.935 348.438 276.953 348.254 277.596 347.703C278.238 347.153 280.348 346.511 282.183 346.144C284.477 345.685 286.588 344.4 288.515 342.198C291.267 339.17 291.359 338.711 290.809 333.664C290.35 329.994 290.533 327.608 291.359 326.232C292.002 325.039 292.552 323.479 292.644 322.745C293.011 318.616 295.213 313.202 297.232 311.459C298.516 310.358 301.636 308.982 304.297 308.431L309.069 307.513L309.344 301.824C309.619 296.961 309.894 296.135 311.363 296.135C312.372 296.135 314.115 297.237 315.4 298.521C317.419 300.815 318.061 300.907 322.557 300.448C326.136 299.989 328.062 300.173 329.439 301.182C331.549 302.65 332.467 302.191 332.467 299.714C332.467 298.796 333.017 297.512 333.66 296.869C334.302 296.227 335.128 294.943 335.495 294.117C335.954 292.924 336.688 292.649 338.706 293.016C340.909 293.474 341.734 293.107 343.386 291.089C345.772 287.969 345.772 287.051 343.753 285.491C342.193 284.39 342.193 284.207 343.661 282.739C344.946 281.362 346.689 281.179 353.021 281.271C365.316 281.546 368.803 279.16 365.5 272.829C364.582 270.902 363.389 268.241 362.839 266.681L361.921 264.02H366.417C370.179 264.02 371.556 264.571 375.318 267.507C383.117 273.655 385.687 274.756 393.119 275.49C399.634 276.04 400.276 275.949 402.662 273.838L405.231 271.636L411.012 273.563C415.416 275.031 416.884 275.949 417.343 277.6C417.802 279.435 418.261 279.619 421.289 279.068C425.785 278.334 432.483 275.398 434.869 273.104C436.704 271.361 436.796 271.361 439.273 274.205C442.118 277.325 445.605 277.6 446.063 274.572C446.247 273.563 446.522 272.278 446.614 271.82C446.798 271.269 446.981 270.443 447.165 269.984C447.256 269.434 447.715 268.516 448.266 267.966C449.55 266.314 448.449 264.02 446.43 264.02C443.769 264.02 444.137 258.973 446.889 257.689C448.633 256.863 448.908 256.221 448.449 254.202C448.082 252.826 447.807 251.266 447.899 250.715C448.357 246.953 448.908 245.944 451.294 244.751C455.606 242.64 458.267 239.154 457.9 236.217C457.717 234.658 457.992 233.74 458.818 233.74C459.46 233.74 460.011 232.731 460.011 231.354C460.011 229.794 460.561 228.785 461.846 228.51C462.855 228.234 463.681 227.959 463.681 227.867C463.681 227.867 463.039 225.757 462.305 223.28C461.387 220.16 461.204 218.416 461.846 217.774C462.305 217.315 462.763 216.214 462.763 215.388C462.763 210.984 470.379 203.276 473.04 204.928C473.591 205.295 473.866 205.02 473.591 204.377C473.407 203.643 472.398 202.726 471.389 202.175C470.471 201.625 469.462 201.074 469.278 200.982C469.095 200.891 471.297 198.413 474.141 195.66C476.986 192.816 479.647 190.705 480.014 190.981C481.115 191.623 482.308 190.43 484.327 186.485C485.336 184.558 486.988 181.805 488.089 180.52C490.566 177.584 490.107 172.629 486.988 169.05C484.327 165.931 480.932 155.103 480.748 149.322C480.656 145.377 480.564 145.193 477.261 144.459C473.132 143.45 473.04 142.716 476.068 139.046C478.638 136.018 479.005 132.714 476.986 130.971C475.151 129.503 475.243 127.759 477.169 125.832C478.362 124.731 478.913 122.437 479.005 118.4C479.188 114.087 479.922 111.426 481.574 108.582C483.225 105.737 483.868 103.352 483.868 99.9566C483.868 95.9193 484.235 95.0017 486.253 93.6253C487.63 92.7077 489.74 90.9644 491.025 89.7715C492.31 88.5786 494.695 87.0187 496.439 86.3764C501.027 84.4495 501.669 81.8803 500.476 69.9518C498.916 54.4446 497.815 50.5908 494.053 46.9205C491.117 44.1677 490.291 43.8007 485.703 43.8007C482.033 43.8007 479.463 44.443 476.527 46.0029C474.233 47.2875 467.443 50.6826 461.295 53.7106C445.788 61.3265 442.485 63.6204 442.76 66.0979C442.852 67.199 442.577 71.4199 442.21 75.4572L441.384 82.7061L432.942 91.2396C423.124 101.058 421.197 102.159 415.783 100.324C413.489 99.4978 411.471 99.3143 410.553 99.7731C407.617 101.333 405.323 101.792 400.093 102.067C393.303 102.342 392.568 103.076 394.22 107.848C395.505 111.426 395.413 111.61 393.394 112.527C390.825 113.629 390.55 115.831 392.66 117.024C395.046 118.4 393.394 121.153 388.439 124.089C383.943 126.842 382.934 128.402 384.861 129.686C385.503 130.053 384.494 131.338 382.475 132.99C380.548 134.641 379.355 136.293 379.631 137.027C379.906 137.761 379.722 138.312 379.264 138.312C378.805 138.312 378.346 139.229 378.162 140.33C377.979 142.074 377.428 142.441 374.767 142.165C372.198 141.982 371.831 142.165 372.382 143.542C372.749 144.459 373.391 146.57 373.758 148.313C374.217 150.057 374.951 151.708 375.41 151.983C377.061 153.176 377.153 155.47 375.501 157.672C374.584 158.865 373.758 160.333 373.758 160.884C373.758 162.26 369.721 165.839 368.161 165.839C367.243 165.839 366.784 166.848 366.784 169.05C366.784 171.344 366.234 172.721 364.766 173.638C363.756 174.464 362.197 175.657 361.462 176.483C360.27 177.584 359.719 177.584 358.159 176.666C356.691 175.749 355.957 175.749 354.672 176.666C351.186 179.144 349.259 179.511 345.68 178.226C343.661 177.492 340.358 176.942 338.339 176.85C334.761 176.85 334.486 177.033 333.935 179.694C333.017 184.191 327.879 191.531 325.218 192.082C323.933 192.357 321.456 193.183 319.804 193.917C315.95 195.569 310.261 196.945 304.939 197.587C302.645 197.771 299.893 198.23 298.792 198.413C297.232 198.78 296.681 198.505 296.498 197.312C296.498 196.394 296.314 195.202 296.314 194.559C296.222 194.009 295.213 192.449 294.112 191.256C292.919 190.063 292.093 188.687 292.277 188.228C292.369 187.769 291.726 186.301 290.809 184.925C289.891 183.548 288.974 180.796 288.698 178.869C288.331 176.391 287.047 174.097 284.202 171.069C282 168.683 280.165 166.114 280.165 165.288C280.165 164.554 279.431 163.637 278.605 163.361C275.577 162.169 273.925 159.875 273.283 155.746C272.916 153.452 271.907 150.057 270.897 148.13C269.888 146.203 269.337 144.276 269.613 143.817C269.888 143.358 269.337 142.165 268.236 141.064C267.227 140.055 266.401 138.495 266.401 137.577C266.401 136.66 265.208 134.733 263.648 133.448C262.18 132.072 259.794 129.319 258.418 127.209C256.399 124.089 256.124 123.171 257.042 121.703C257.959 120.235 257.868 118.767 256.675 114.179C255.849 111.059 255.115 107.94 255.115 107.297C255.115 106.747 254.84 106.196 254.564 106.196C253.738 106.196 251.903 101.608 250.894 96.9286C250.068 93.1665 250.252 88.5786 251.353 86.8352C251.536 86.4682 250.71 83.9907 249.426 81.238C248.141 78.577 247.132 75.7325 247.132 74.9067C247.132 74.0808 246.306 72.7045 245.297 71.7869C244.287 70.8693 243.462 69.3094 243.462 68.3918C243.462 67.3825 243.003 65.7309 242.36 64.6298C240.801 61.7853 240.801 59.6748 242.177 55.0869C242.911 52.7012 243.278 48.1133 243.094 44.1677C242.819 38.8457 243.094 37.1024 244.012 36.7353C245.572 36.1848 245.664 34.3496 244.196 30.3123C243.186 27.6513 243.278 27.1007 245.205 25.082C248.416 21.687 247.407 16.8238 241.81 7.73978C237.13 0.123871 235.754 -1.2525 234.928 0.949677ZM240.158 7.09747C242.452 9.94199 246.214 18.0167 246.214 20.0353C246.214 21.2282 245.388 23.2469 244.379 24.5315C242.452 27.0089 241.993 30.4958 243.462 31.4133C244.838 32.3309 244.563 35.2672 243.003 35.9095C241.81 36.3683 241.626 37.6529 241.993 43.5254C242.36 48.6638 242.085 52.0589 240.984 55.5457C239.608 60.1336 239.608 60.6842 241.259 65.6391C242.177 68.4836 243.553 71.3281 244.287 71.8787C245.021 72.4292 245.755 73.8056 245.939 74.9984C246.122 76.1913 247.04 78.944 248.049 81.1462C249.426 84.3578 249.701 86.3764 249.242 90.5973C248.783 95.3687 249.151 97.1121 252.362 105.921C256.766 117.666 257.592 120.877 256.308 120.877C254.931 120.877 255.207 125.19 256.766 126.75C257.5 127.484 258.143 128.31 258.143 128.677C258.143 129.962 262.272 134.641 263.373 134.641C264.015 134.641 264.566 134.916 264.658 135.283C264.933 138.128 265.575 139.78 266.768 140.697C267.594 141.248 268.236 142.532 268.236 143.45C268.236 144.459 269.062 146.845 269.98 148.68C270.989 150.607 271.998 154.186 272.365 156.663C272.916 160.517 273.466 161.526 276.219 163.178C278.054 164.279 279.155 165.655 278.88 166.389C278.605 167.032 279.247 167.858 280.257 168.133C281.174 168.5 282 169.234 282 169.968C282 170.61 282.917 171.987 284.11 172.904C285.395 173.914 286.68 176.483 287.505 179.878C288.148 182.722 289.249 185.567 289.983 186.117C290.625 186.668 291.176 187.861 291.176 188.778C291.176 189.604 292.002 191.072 292.919 191.898C293.837 192.816 294.938 194.926 295.213 196.67C295.855 199.698 295.947 199.789 299.25 199.331C301.086 199.055 304.297 198.688 306.316 198.505C310.078 198.138 315.767 196.578 323.475 193.825C326.778 192.632 328.613 191.164 331.091 187.769C332.834 185.383 334.486 182.264 334.853 181.071C335.128 179.786 336.229 178.502 337.147 178.226C339.44 177.492 346.047 178.502 346.781 179.694C347.515 180.887 352.654 179.786 354.672 178.043C355.865 177.033 356.599 176.942 358.159 177.767C359.811 178.593 360.637 178.318 363.573 176.024C366.784 173.455 369.078 169.142 367.885 167.858C367.61 167.674 368.62 166.757 370.179 165.931C371.739 165.105 373.942 162.811 375.043 160.792C376.052 158.774 377.337 156.847 377.887 156.48C378.438 156.021 378.254 154.736 377.153 152.809C376.327 151.158 375.226 148.405 374.767 146.753C373.942 144.001 374.033 143.817 376.144 143.817C377.52 143.817 378.621 143.175 378.897 142.165C380.456 137.486 382.383 134.549 384.953 132.714C387.43 130.879 387.614 130.512 386.237 129.594C384.402 128.218 384.31 127.301 386.054 127.301C386.696 127.301 387.797 126.658 388.439 125.924C389.082 125.19 389.907 124.731 390.275 125.007C390.642 125.282 391.192 124.823 391.559 124.089C391.834 123.355 392.66 122.713 393.486 122.713C395.321 122.713 395.321 117.758 393.394 115.923C392.11 114.638 392.201 114.363 394.312 113.353C396.789 112.344 397.432 110.417 395.78 109.408C395.321 109.132 394.862 107.848 394.862 106.655C394.862 104.82 395.505 104.269 398.624 103.443C401.652 102.618 402.662 102.618 403.212 103.535C403.763 104.453 404.222 104.453 405.415 103.443C407.525 101.7 413.122 99.7731 413.673 100.691C414.59 102.159 419.821 102.434 422.849 101.241C425.785 99.9566 440.833 85.6424 442.577 82.4308C443.035 81.5132 443.494 77.1089 443.678 72.521L443.953 64.171L447.807 61.7853C450.009 60.5007 456.249 57.3809 461.662 54.8116C467.076 52.2424 473.04 49.1227 474.875 47.7463C477.353 46.0946 479.922 45.2688 484.143 44.9935C489.649 44.5348 490.107 44.6265 493.227 47.3792C496.897 50.499 497.723 53.6188 499.467 70.3188C500.66 80.8709 499.742 84.7248 495.888 85.5506C494.42 85.8259 492.126 87.294 490.75 88.7621C489.281 90.322 487.63 91.5149 486.988 91.5149C484.877 91.5149 482.95 95.4605 482.95 99.6814C482.95 102.342 482.216 105.095 480.656 107.573C479.096 110.234 478.362 113.262 477.995 117.574C477.812 121.428 477.078 124.364 476.16 125.374C474.325 127.392 474.325 129.136 476.068 131.613C477.628 133.815 477.169 135.926 474.508 138.954C471.939 141.707 472.765 144.092 476.527 145.285C479.463 146.294 479.739 146.661 479.463 149.322C479.28 150.974 479.739 154.002 480.473 156.113C481.207 158.223 482.308 161.618 482.95 163.729C483.592 165.839 485.152 168.5 486.253 169.601C488.914 172.078 489.281 178.135 486.896 180.704C485.152 182.631 483.225 185.842 482.4 188.044C482.033 189.054 480.84 189.696 479.555 189.696C478.087 189.696 477.078 190.338 476.802 191.531C476.527 192.541 475.885 193.366 475.426 193.366C474.967 193.366 473.499 194.559 472.215 196.119C471.022 197.587 469.37 198.872 468.636 198.872C466.709 198.872 467.076 200.432 469.462 202.083C470.838 203.184 471.113 203.827 470.288 204.102C467.718 205.111 463.865 209.057 462.763 211.902C462.213 213.553 461.204 215.847 460.653 217.04C459.827 218.692 459.919 220.16 461.02 223.188C462.396 226.95 462.396 227.225 460.745 227.592C459.827 227.867 459.093 228.877 459.093 229.886C459.093 230.895 458.451 231.997 457.625 232.272C456.524 232.639 456.34 233.465 456.707 235.116C457.625 238.878 453.496 243.466 448.541 244.2C448.082 244.2 447.623 245.21 447.623 246.311C447.623 247.412 447.256 248.605 446.889 248.972C446.522 249.339 446.522 251.174 446.798 253.101C447.348 256.221 447.165 256.771 445.238 257.505C443.402 258.148 443.035 258.973 443.035 261.818C443.035 264.938 443.311 265.396 445.054 265.396C446.247 265.396 447.073 265.672 447.073 266.039C446.889 268.241 445.88 270.443 445.146 270.443C444.687 270.443 444.504 271.544 444.595 272.829C444.962 276.407 442.944 276.591 440.099 273.288C437.346 270.168 435.511 269.709 434.685 271.82C434.043 273.471 426.794 276.958 422.206 277.784C418.995 278.426 418.628 278.243 418.169 276.316C417.894 275.123 417.068 274.022 416.334 274.022C414.866 273.838 414.223 273.655 412.296 273.012C405.598 270.443 404.772 270.443 401.928 272.829C399.359 274.939 398.716 275.123 393.119 274.481C386.237 273.838 383.668 272.645 376.603 267.323C372.29 264.112 370.822 263.47 365.775 263.103C360.453 262.644 358.71 263.103 360.82 264.387C361.279 264.662 361.921 266.039 362.197 267.415C362.564 268.883 363.481 271.361 364.399 273.012C367.243 278.518 363.114 281.087 352.929 280.078C348.341 279.619 346.689 279.802 344.395 281.087C341.367 282.922 340.817 285.491 343.203 286.868C344.762 287.694 344.671 287.877 342.652 290.079C341 291.915 339.899 292.282 337.789 291.823C335.587 291.364 335.036 291.639 334.577 293.291C334.302 294.3 333.751 295.218 333.384 295.218C332.926 295.218 332.375 296.411 332.008 297.879C331.458 300.448 331.274 300.54 328.705 299.622C327.145 299.072 323.933 298.888 321.456 299.072C317.694 299.439 316.776 299.255 316.409 297.971C316.134 297.053 314.941 296.044 313.748 295.768C312.555 295.493 310.904 294.943 310.078 294.667C308.977 294.209 308.61 295.218 308.426 300.448L308.151 306.688L304.389 306.963C302.003 307.146 299.893 307.972 298.975 309.073C298.058 309.991 296.865 310.817 296.222 310.817C294.938 310.817 293.011 314.671 293.011 317.24C293.011 318.157 292.552 319.258 292.002 319.626C291.451 319.901 291.176 321.185 291.451 322.378C291.635 323.571 291.359 324.672 290.809 324.856C290.258 325.039 289.708 328.343 289.616 332.38C289.341 338.803 288.974 339.996 286.863 342.198C285.487 343.574 284.202 344.584 284.019 344.308C283.743 344.033 283.009 344.308 282.367 344.767C281.816 345.318 280.899 345.685 280.532 345.501C280.073 345.41 278.788 345.777 277.596 346.419C276.311 347.153 274.109 347.428 271.631 347.061C267.135 346.327 265.483 347.612 263.74 353.025C263.006 355.228 261.263 357.246 257.959 359.449C255.39 361.192 251.995 364.22 250.435 366.147C247.866 369.358 247.774 369.817 248.783 372.478C249.701 374.864 249.609 375.781 248.508 377.341C247.682 378.351 245.847 381.103 244.379 383.397C241.535 387.802 237.222 390.646 236.671 388.536C235.387 384.407 235.203 384.131 233.368 384.682C232.359 385.049 231.533 384.865 231.533 384.315C231.533 383.673 230.799 383.673 229.055 384.315C226.211 385.416 224.192 384.865 224.192 382.939C224.192 381.195 220.889 379.268 219.146 380.002C218.412 380.278 217.586 380.094 217.219 379.544C216.943 378.993 216.118 378.809 215.567 378.993C214.925 379.268 213.915 378.626 213.365 377.708C212.539 376.424 211.346 375.965 209.144 376.148C206.667 376.332 205.474 375.69 202.904 372.937C199.601 369.542 195.38 368.349 194.646 370.643C194.371 371.469 193.545 371.377 191.71 370.184C189.141 368.441 187.489 368.808 187.489 370.918C187.489 373.946 185.746 376.699 184.094 376.332C182.075 375.781 179.139 367.615 180.24 365.688C180.699 364.954 180.424 363.302 179.69 361.834C178.956 360.55 178.589 358.898 178.772 358.256C179.047 357.613 178.589 356.329 177.854 355.411C176.662 353.851 176.203 353.76 174.368 354.769C172.9 355.595 171.615 355.595 169.78 354.952C167.761 354.127 167.211 354.31 166.476 355.686C164.825 358.714 160.512 359.816 153.63 358.806L147.299 357.98L149.501 360.917C151.428 363.394 151.52 363.945 150.327 364.954C149.593 365.596 149.134 366.33 149.318 366.697C151.061 369.542 137.481 373.304 134.912 370.643C133.719 369.542 133.26 369.634 131.608 371.01C130.599 371.928 129.681 373.12 129.681 373.671C129.681 374.864 125.277 376.883 122.616 376.883C121.423 376.883 119.588 377.8 118.487 378.901C117.386 380.002 115.826 381.012 115.184 381.103C112.614 381.562 111.33 382.388 111.33 383.764C111.33 384.498 110.779 385.141 110.045 385.141C109.403 385.141 108.302 385.783 107.66 386.517C106.834 387.526 106.191 387.71 105.457 386.976C104.999 386.517 103.53 386.058 102.338 386.058C99.493 386.058 94.0793 380.278 93.3453 376.332C92.9782 374.222 92.2442 373.212 90.8678 373.029C89.7667 372.845 88.2986 371.561 87.6562 370.184C86.7387 368.257 86.0964 367.798 85.3623 368.533C83.2519 370.643 82.059 368.9 81.4167 363.119C81.1414 361.375 80.2238 359.265 79.2145 358.347C78.2052 357.522 77.3793 356.237 77.3793 355.411C77.3793 354.585 77.0123 353.943 76.4618 353.943C76.003 353.943 75.5442 351.924 75.5442 349.539C75.5442 347.061 75.2689 344.767 74.9936 344.492C74.6266 344.125 74.2596 339.537 74.1678 334.307C73.9843 324.122 74.5348 322.929 78.3887 324.122C79.4898 324.489 80.1321 324.03 80.5909 322.745C81.0497 321.369 81.692 321.002 82.9766 321.369C84.0777 321.736 84.9035 321.461 85.2705 320.543C85.6376 319.626 86.9222 319.075 88.7573 319.075C90.409 319.075 91.9689 318.891 92.1524 318.616C92.6112 318.249 91.7854 311.092 90.5925 304.302C90.3172 302.375 90.5007 300.081 91.1431 298.888C91.9689 297.328 91.8771 296.502 90.5925 294.484C89.7667 293.107 88.4821 291.639 87.748 291.272C87.1057 290.905 86.5552 289.804 86.5552 288.978C86.5552 288.152 85.5458 285.675 84.353 283.565C83.0683 281.454 81.8755 278.701 81.5085 277.6C81.1414 276.407 79.8568 274.022 78.664 272.187C77.4711 270.443 76.2782 267.14 76.003 264.938C75.8195 262.46 74.7184 259.799 73.0667 257.689C71.5986 255.854 69.9469 253.284 69.3046 251.816C68.7541 250.44 67.9283 249.339 67.5612 249.431C65.4508 249.614 61.3217 252.917 60.8629 254.753C60.4041 256.771 60.3123 256.679 57.5596 253.743C54.1645 250.165 50.7695 243.742 50.4025 240.347C50.1272 237.502 52.1459 234.658 54.4398 234.658C57.009 234.658 60.6794 231.171 61.3217 228.234C61.7805 226.124 62.4228 225.482 64.1662 225.482C65.6343 225.482 66.3684 224.931 66.3684 223.922C66.3684 223.096 67.0107 221.72 67.7447 220.894C69.3964 219.059 69.8552 212.085 68.387 210.617C66.8272 209.057 67.0107 207.314 69.2129 204.561C70.681 202.726 70.9563 201.441 70.4975 198.688C70.0387 196.394 70.2222 195.202 70.8645 195.202C71.4151 195.202 71.8739 194.559 71.8739 193.825C71.8739 193.091 72.8832 191.531 74.1678 190.43C75.4524 189.329 76.4618 187.861 76.4618 187.219C76.4618 186.485 77.6546 184.741 79.2145 183.273C80.6826 181.805 81.9672 179.786 81.9672 178.685C81.9672 177.676 82.5178 176.85 83.2519 176.85C83.9859 176.85 84.8117 175.841 85.087 174.556C85.8211 171.711 87.4727 171.528 87.4727 174.372C87.4727 175.565 88.115 177.309 88.8491 178.318C89.5832 179.236 90.2255 180.796 90.2255 181.621C90.2255 182.539 91.5101 183.824 93.2535 184.558C94.9051 185.2 97.0156 186.852 97.8414 188.228C98.759 189.513 99.8601 190.614 100.319 190.614C102.154 190.614 104.723 183.732 104.632 178.96C104.54 175.749 105.09 173.638 106.008 172.537C108.302 169.968 106.65 161.802 103.072 158.04C101.603 156.48 100.319 154.644 100.319 154.002C100.319 150.791 92.1524 146.478 81.9672 144.368C80.6826 144.092 77.6546 142.257 75.2689 140.238C72.8832 138.22 70.314 136.752 69.5799 137.027C68.9376 137.302 67.2859 136.843 65.9096 135.926C64.625 135.1 63.3404 134.641 63.0651 134.916C62.698 135.192 60.5876 133.632 58.2937 131.43C55.9997 129.136 53.7975 127.301 53.4305 127.301C53.0634 127.301 52.6047 126.566 52.4211 125.649C52.1459 124.731 50.4025 123.538 48.292 122.896C46.1816 122.254 44.0711 121.153 43.4288 120.419C42.7865 119.685 41.6854 119.042 41.0431 119.042C40.3091 119.042 39.7585 118.216 39.7585 117.299C39.7585 116.29 38.9327 115.188 37.9234 114.913C36.914 114.638 35.8129 113.262 35.5376 111.885C34.8036 108.949 31.592 105.095 30.4909 105.829C29.3898 106.471 28.0135 102.618 27.6464 98.2132C27.4629 96.1945 26.7289 94.1759 25.7195 93.5336C24.8019 92.7995 23.4256 90.6891 22.6915 88.7621C21.8657 86.8352 20.6728 85.0001 19.9388 84.7248C19.2047 84.4495 18.6542 83.4402 18.6542 82.5226C18.6542 81.5132 17.7366 79.5863 16.6355 78.1182C14.8003 75.916 12.4146 68.3918 12.0476 63.9875C11.9558 61.7853 10.3042 60.3171 8.10197 60.3171C6.2668 60.3171 6.08329 59.9501 6.17505 54.3529C6.2668 49.6732 5.89977 48.2051 4.61516 47.2875C3.69758 46.6452 2.87175 44.81 2.78 43.3419C2.59648 41.2314 3.05527 40.2221 4.98219 39.0293C6.35856 38.2034 7.91845 36.0013 8.56076 34.2578C9.75361 30.5875 10.763 30.3123 17.7366 32.1474C21.4069 33.1567 22.3245 33.065 25.9948 31.3216C28.3805 30.2205 30.7662 28.6606 31.4085 27.8348C33.3354 25.5408 34.1613 26.0914 33.0602 29.1194C32.5096 30.5875 32.2343 31.9639 32.5096 32.2392C32.7849 32.5144 35.1706 32.8815 37.9234 33.1567C40.6761 33.3403 43.1536 33.5238 43.3371 33.6155C43.5206 33.7073 42.97 34.8084 42.0525 36.093C40.4926 38.4787 40.4926 38.5705 43.0618 40.6809C44.5299 41.8738 46.3651 43.4337 47.1909 44.2595C48.7508 45.7276 51.6871 46.0946 51.6871 44.81C51.6871 43.0666 55.7244 43.0666 57.9266 44.81C60.6794 46.9205 63.3404 47.0122 65.5425 45.0853C67.0107 43.8007 67.1942 43.8007 67.7447 45.5441C68.6623 48.3886 72.975 49.0309 77.6546 47.0122C78.4804 46.6452 79.8568 46.5534 80.5909 46.9205C82.2425 47.471 84.72 45.2688 86.2799 41.8738C87.0139 40.1304 88.2986 39.3045 90.776 38.8457C92.8865 38.387 94.3546 38.5705 94.8134 39.121C95.4557 40.2221 98.1167 40.4056 103.806 39.7633C106.558 39.3963 108.485 39.6716 109.953 40.6809C111.605 41.782 112.523 41.8738 113.991 41.1397C115 40.5891 117.202 40.1304 119.038 40.1304C120.781 40.1304 122.433 39.7633 122.708 39.3045C122.983 38.8457 126.103 38.2034 129.498 37.8364C132.985 37.4694 136.288 36.9188 136.93 36.5518C137.664 36.093 138.857 36.5518 140.05 37.7447C141.151 38.8457 143.262 40.5891 144.822 41.6902C146.748 43.0666 147.483 44.2595 147.299 46.0029C146.932 51.0496 152.437 50.2238 154.456 44.9935C155.19 43.0666 155.741 41.3232 155.833 41.0479C156.2 38.9375 159.595 30.037 160.696 28.3853C161.43 27.1925 163.265 25.6326 164.733 24.8985C166.201 24.1645 168.22 22.6963 169.321 21.5952C171.064 19.8518 171.34 19.8518 172.074 21.2282C172.533 22.054 173.634 22.6963 174.551 22.6963C176.295 22.6963 177.12 24.715 177.946 30.8628C178.13 32.698 178.772 34.5331 179.231 34.9919C179.781 35.5424 179.69 36.4601 179.139 37.4694C178.313 39.2128 179.047 41.415 181.8 44.81C182.442 45.6358 182.901 46.9205 182.718 47.5628C182.534 48.3886 183.176 48.7556 184.461 48.5721C186.021 48.3886 186.296 48.6638 185.929 50.2238C185.654 51.2331 185.837 52.0589 186.388 52.0589C187.581 52.0589 188.59 55.4539 188.59 59.3078C188.59 61.143 189.324 63.5287 190.425 64.8133L192.26 67.199L190.334 67.4743C188.04 67.8413 187.764 69.0341 189.875 69.86C190.609 70.1353 190.976 70.8693 190.609 71.4199C190.242 72.0622 190.517 72.9798 191.251 73.5303C193.27 75.1819 195.105 78.8523 194.187 79.4946C193.086 80.2286 192.903 83.9907 193.912 84.633C194.371 84.9083 194.554 85.7341 194.279 86.3764C193.545 88.3951 195.38 88.8539 198.133 87.3858C199.601 86.6517 200.427 86.0094 199.968 86.0094C199.509 86.0094 199.876 85.1836 200.794 84.1743C201.712 83.1649 203.363 82.3391 204.556 82.3391C206.667 82.3391 209.052 79.4946 207.951 78.3017C207.676 78.0265 207.768 77.7512 208.318 77.7512C209.419 77.7512 211.346 73.7138 211.346 71.2364C211.346 68.5754 213.915 63.9875 215.475 63.9875C217.586 63.9875 218.962 60.5924 217.31 59.6748C216.576 59.216 215.842 57.1974 215.659 54.9952C215.384 52.8847 214.741 50.5908 214.099 49.765C213.273 48.8474 213.273 47.7463 213.915 45.8194C214.374 44.443 214.649 40.0386 214.466 36.0013C214.282 31.9639 214.466 27.8348 214.925 26.8254C217.219 21.5035 217.769 19.5765 217.769 16.8238C217.769 15.0804 217.127 13.2453 216.393 12.603C214.558 11.1348 214.649 10.1255 216.852 7.83154C218.779 5.81287 225.385 4.98703 227.587 6.45517C228.78 7.28098 234.102 4.16122 235.479 1.77551C236.121 0.766174 236.58 1.13321 237.681 3.15189C238.415 4.52826 239.516 6.3634 240.158 7.09747Z" fill="#FF453A" stroke="#EB4335" stroke-width="10" mask="url(#path-1-inside-1_104_2421)"/>
<path d="M200.426 92.0654C200.426 93.0747 200.701 93.35 200.977 92.6159C201.252 91.9736 201.16 91.1478 200.885 90.8725C200.61 90.5055 200.334 91.056 200.426 92.0654Z" fill="#FF453A"/>
<path d="M199.418 95.2769C199.418 95.7357 199.877 95.9193 200.336 95.644C200.886 95.3687 201.253 94.9099 201.253 94.6346C201.253 94.4511 200.886 94.2676 200.336 94.2676C199.877 94.2676 199.418 94.7264 199.418 95.2769Z" fill="#FF453A"/>
<path d="M157.851 343.941C158.494 344.584 159.228 344.859 159.503 344.584C159.778 344.308 159.32 343.758 158.402 343.483C157.117 342.932 157.026 343.024 157.851 343.941Z" fill="#FF453A"/>
</g>
<path d="M222.334 157.056C217.721 158.276 215.812 159.389 216.236 160.503C216.66 161.51 216.236 161.563 221.061 159.919C226.417 158.117 234.159 157.639 239.62 158.806C250.067 161.033 257.437 168.245 259.982 178.797C260.99 182.88 260.831 190.569 259.717 194.439C257.702 201.333 249.961 215.65 238.03 234.421L232.197 243.595L228.485 237.868C216.607 219.627 206.214 200.484 204.517 193.909C203.457 189.826 203.51 182.19 204.57 178.054C205.737 173.441 208.282 168.881 211.57 165.593C214.168 162.942 214.804 161.298 213.16 161.298C211.888 161.298 206.532 167.502 204.888 170.843C202.396 175.986 201.389 180.388 201.389 186.486C201.442 192.371 202.184 195.606 204.994 201.757L206.744 205.628L195.821 220.846C189.829 229.171 184.792 236.012 184.632 236.012C184.473 236.065 180.815 231.027 176.413 224.929C172.065 218.831 168.088 213.847 167.664 213.847C166.657 213.794 117.608 281.561 117.608 282.993C117.555 284 117.873 284.053 127.63 284.053C137.333 284.053 137.704 284 137.704 282.993C137.704 281.985 137.28 281.932 129.326 281.773C124.713 281.72 121.001 281.455 121.107 281.243C121.425 280.395 167.399 217.028 167.664 217.028C167.823 217.028 171.482 222.013 175.883 228.164C180.337 234.421 184.155 239.246 184.632 239.246C185.057 239.193 190.412 232.3 196.51 223.869C202.555 215.385 207.699 208.491 207.911 208.491C208.07 208.491 209.077 209.976 210.032 211.779C216.713 223.975 231.083 246.67 232.144 246.67C232.568 246.67 233.735 245.344 234.848 243.754C236.386 241.367 236.916 240.943 237.446 241.473C238.295 242.428 266.293 281.137 266.293 281.455C266.293 281.561 255.793 281.667 242.961 281.667H219.63V270.532C219.63 254.518 220.372 255.154 202.237 255.154H190.094L189.723 253.51C189.564 252.609 189.405 251.177 189.405 250.382C189.405 249.533 189.034 248.791 188.556 248.579C187.39 248.102 172.277 248.208 171.588 248.685C171.27 248.897 170.846 250.435 170.634 252.079L170.262 255.154H168.141C166.179 255.154 166.073 255.048 166.073 253.563V251.973H161.301H156.529V253.404C156.529 254.677 156.211 254.995 154.036 255.684C152.234 256.268 151.173 257.01 150.325 258.283C149.158 259.98 149.105 260.563 149.105 270.85V281.614L145.287 281.773C141.84 281.932 141.416 282.038 141.416 282.993C141.416 283.947 141.84 284.053 145.234 284.212L149.052 284.372L149.211 287.394C149.317 289.727 149.582 290.47 150.272 290.576C151.12 290.735 151.173 289.515 151.332 275.41C151.491 261.146 151.544 259.98 152.499 258.919C153.506 257.806 153.665 257.806 184.42 257.806H215.335L216.448 258.972C217.456 260.086 217.509 260.722 217.509 282.038V303.991L216.183 305.264L214.91 306.589H184.526C160.453 306.536 153.93 306.43 153.241 305.847C151.809 304.787 151.226 302.612 151.226 298.158C151.226 293.81 151.067 293.227 149.847 293.704C148.84 294.075 148.84 302.772 149.847 305.264C151.332 308.817 150.431 308.71 184.951 308.71H216.024L217.827 306.908L219.63 305.105V294.712V284.319L244.658 284.212C266.452 284.053 269.739 283.947 269.898 283.258C269.951 282.834 262.899 272.547 254.15 260.457L238.242 238.504L239.09 237.125C246.249 226.361 256.801 207.696 259.823 200.537C263.588 191.735 264.065 183.622 261.255 175.35C258.233 166.283 252.771 160.768 243.491 157.48C238.984 155.836 227.637 155.624 222.334 157.056ZM187.39 253.033L187.602 255.154H179.966C173.232 255.154 172.383 255.048 172.649 254.306C172.808 253.829 172.967 252.874 172.967 252.185V250.912H180.072H187.178L187.39 253.033ZM163.952 254.624C163.952 254.889 162.786 255.154 161.301 255.154C159.869 255.154 158.65 254.889 158.65 254.624C158.65 254.306 159.869 254.094 161.301 254.094C162.786 254.094 163.952 254.306 163.952 254.624Z" fill="#FF453A"/>
<path d="M151.757 167.873C149.211 168.563 145.977 170.313 144.863 171.638C144.333 172.328 144.015 172.275 142.583 171.585C138.606 169.464 133.197 172.699 133.197 177.206C133.197 179.115 133.091 179.327 131.872 179.327C128.319 179.327 125.88 182.402 126.463 186.061C127.153 190.197 133.728 194.439 142 196.083C147.886 197.25 162.945 197.25 167.93 196.083C175.459 194.333 180.126 190.197 180.126 185.266C180.126 183.304 179.86 182.721 178.376 181.395C177.209 180.334 176.096 179.857 174.823 179.857C173.179 179.857 172.967 179.698 172.437 177.842C170.369 170.047 160.771 165.434 151.757 167.873ZM163.953 171.267C167.558 173.07 169.891 176.198 170.316 179.751L170.581 182.243L173.232 182.084C175.989 181.872 177.103 182.562 177.898 184.683C178.429 186.167 176.308 189.614 173.921 191.152C170.051 193.644 167.081 194.28 157.749 194.545C143.909 194.97 135.425 193.114 130.705 188.607C128.107 186.114 127.895 184.789 129.698 182.668C130.917 181.236 131.023 181.236 133.516 181.872C134.894 182.243 136.22 182.349 136.485 182.084C136.75 181.819 136.591 180.812 136.114 179.698C135.053 177.1 135.106 176.464 136.591 174.767C138.129 172.911 141.151 172.805 142.954 174.502C144.492 175.986 144.916 175.933 146.189 174.077C149.264 169.464 157.642 168.138 163.953 171.267Z" fill="#FF453A"/>
<path d="M226.152 170.313C217.986 173.6 213.956 183.622 217.668 191.629C222.228 201.651 234.742 204.196 243.173 196.772C247.999 192.53 249.484 184.258 246.514 178.16C243.81 172.646 239.196 169.729 232.886 169.411C229.811 169.305 228.273 169.464 226.152 170.313ZM238.878 173.335C249.643 179.38 247.362 195.447 235.273 198.469C230.394 199.689 225.516 198.045 221.91 193.962C215.335 186.485 218.834 175.085 228.644 171.85C231.19 171.002 235.909 171.691 238.878 173.335Z" fill="#FF453A"/>
<path d="M226.788 181.978C226.046 183.198 227.371 183.569 232.409 183.569C237.181 183.569 237.711 183.463 237.552 182.615C237.393 181.872 236.651 181.713 232.25 181.554C229.121 181.448 227 181.607 226.788 181.978Z" fill="#FF453A"/>
<path d="M226.735 187.334C226.046 188.5 227.583 188.925 232.409 188.766C236.651 188.607 237.393 188.447 237.552 187.652C237.711 186.857 237.181 186.751 232.409 186.751C229.174 186.751 227 186.963 226.735 187.334Z" fill="#FF453A"/>
<path d="M198.207 227.369C192.586 235.11 191.844 236.595 193.488 236.595C194.124 236.595 196.139 234.262 199.692 229.331C204.994 221.96 205.684 220.581 204.252 220.316C203.775 220.21 201.548 222.808 198.207 227.369Z" fill="#FF453A"/>
<path d="M199.586 267.456L199.745 271.857H207.169H214.592V267.615V263.373L207.009 263.214L199.427 263.055L199.586 267.456ZM212.206 267.456V269.736L206.903 269.577L201.601 269.418V267.297V265.229H206.903H212.206V267.456Z" fill="#FF453A"/>
<path d="M174.717 265.441C159.657 270.373 158.491 291.318 172.861 297.999C177.156 300.014 183.095 300.014 187.39 297.999C200.54 291.901 200.912 272.812 187.973 266.502C184.473 264.752 178.269 264.275 174.717 265.441ZM184.473 267.615C190.412 269.365 194.601 274.615 195.132 280.872C196.033 292.113 184.473 300.545 174.239 296.037C168.619 293.545 165.49 288.985 165.119 282.728C164.907 279.016 165.013 278.539 166.657 275.357C168.725 271.433 171.27 269.206 175.194 267.827C178.641 266.661 180.974 266.555 184.473 267.615Z" fill="#FF453A"/>
<path d="M177.739 269.948C171.376 271.274 166.922 277.584 167.876 284.053C168.725 289.674 174.346 294.393 180.072 294.393C185.587 294.393 190.678 290.523 192.109 285.273C192.799 282.675 192.587 281.455 191.42 281.243C190.731 281.137 190.412 281.561 190.147 283.099C189.67 286.068 187.549 289.356 185.322 290.788C182.353 292.591 177.633 292.538 174.664 290.523C170.952 288.083 169.308 283.523 170.581 279.175C171.694 275.357 175.671 272.123 179.224 272.123C180.921 272.123 181.716 271.009 180.762 270.054C180.444 269.736 180.072 269.524 179.913 269.524C179.701 269.577 178.747 269.736 177.739 269.948Z" fill="#FF453A"/>
<path d="M232.727 286.758C231.879 287.606 232.356 289.091 233.47 289.091C234.265 289.091 234.53 288.826 234.371 287.924C234.212 286.758 233.363 286.174 232.727 286.758Z" fill="#FF453A"/>
<path d="M237.659 288.03C237.659 289.091 237.871 289.091 248.423 288.985C257.543 288.826 259.134 288.72 259.134 288.03C259.134 287.341 257.543 287.235 248.423 287.076C237.871 286.97 237.659 286.97 237.659 288.03Z" fill="#FF453A"/>
<defs>
<filter id="filter0_d_104_2421" x="0" y="-0.00012207" width="508" height="399.434" filterUnits="userSpaceOnUse" color-interpolation-filters="sRGB">
<feFlood flood-opacity="0" result="BackgroundImageFix"/>
<feColorMatrix in="SourceAlpha" type="matrix" values="0 0 0 0 0 0 0 0 0 0 0 0 0 0 0 0 0 0 127 0" result="hardAlpha"/>
<feOffset dx="3" dy="5"/>
<feGaussianBlur stdDeviation="2"/>
<feComposite in2="hardAlpha" operator="out"/>
<feColorMatrix type="matrix" values="0 0 0 0 1 0 0 0 0 0.270588 0 0 0 0 0.227451 0 0 0 1 0"/>
<feBlend mode="normal" in2="BackgroundImageFix" result="effect1_dropShadow_104_2421"/>
<feBlend mode="normal" in="SourceGraphic" in2="effect1_dropShadow_104_2421" result="shape"/>
</filter>
</defs>
</svg>
